<svg width="24" height="24" viewBox="0 0 24 24"  xmlns="http://www.w3.org/2000/svg">
<path fill-rule="evenodd" clip-rule="evenodd" d="M20 20.25C20.4142 20.25 20.75 20.5858 20.75 21C20.75 21.4142 20.4142 21.75 20 21.75L4 21.75C3.58579 21.75 3.25 21.4142 3.25 21C3.25 20.5858 3.58579 20.25 4 20.25L20 20.25ZM5.47873 8.26076C5.18092 8.54864 5.17287 9.02345 5.46076 9.32126C5.74865 9.61908 6.22345 9.62713 6.52127 9.33924L11.25 4.76813L11.25 17C11.25 17.4142 11.5858 17.75 12 17.75C12.4142 17.75 12.75 17.4142 12.75 17L12.75 4.76813L17.4787 9.33924C17.7765 9.62713 18.2514 9.61908 18.5392 9.32127C18.8271 9.02345 18.8191 8.54865 18.5213 8.26076L12.5213 2.46076C12.2306 2.17975 11.7694 2.17975 11.4787 2.46076L5.47873 8.26076Z" />
</svg>
