<svg width="24" height="24" viewBox="0 0 24 24"  xmlns="http://www.w3.org/2000/svg">
<path fill-rule="evenodd" clip-rule="evenodd" d="M10.4109 3.15447C11.0364 1.79845 12.9636 1.79844 13.5891 3.15447L15.5501 7.4059C15.5865 7.48486 15.6613 7.53922 15.7477 7.54945L20.397 8.10071C21.88 8.27653 22.4755 10.1095 21.3791 11.1234L17.9418 14.3021C17.8779 14.3612 17.8493 14.4491 17.8663 14.5344L18.7787 19.1265C19.0698 20.5912 17.5106 21.724 16.2075 20.9946L12.1221 18.7078C12.0462 18.6653 11.9538 18.6653 11.8779 18.7078L7.79249 20.9946C6.48942 21.724 4.93024 20.5912 5.22127 19.1265L6.13372 14.5344C6.15066 14.4491 6.12209 14.3612 6.05825 14.3021L2.62088 11.1234C1.52451 10.1095 2.12006 8.27653 3.603 8.10071L8.25233 7.54945C8.33867 7.53922 8.41349 7.48486 8.44991 7.4059L10.4109 3.15447ZM12.227 3.78274C12.1377 3.58902 11.8623 3.58902 11.773 3.78274L9.812 8.03417C9.55708 8.58683 9.03333 8.96736 8.42894 9.03902L3.77961 9.59027C3.56776 9.61539 3.48268 9.87724 3.63931 10.0221L7.07668 13.2009C7.52352 13.6141 7.72357 14.2298 7.60496 14.8267L6.69251 19.4189C6.65093 19.6281 6.87367 19.7899 7.05982 19.6857L11.1452 17.3989C11.6763 17.1016 12.3237 17.1016 12.8548 17.3989L16.9402 19.6857C17.1263 19.7899 17.3491 19.6281 17.3075 19.4189L16.3951 14.8267C16.2764 14.2298 16.4765 13.6141 16.9233 13.2009L20.3607 10.0221C20.5173 9.87724 20.4323 9.61539 20.2204 9.59027L15.5711 9.03902C14.9667 8.96736 14.4429 8.58683 14.188 8.03417L12.227 3.78274Z" />
</svg>
