<svg width="24" height="24" viewBox="0 0 24 24"  xmlns="http://www.w3.org/2000/svg">
<path fill-rule="evenodd" clip-rule="evenodd" d="M3.5 12C3.5 7.30558 7.30558 3.5 12 3.5C16.6944 3.5 20.5 7.30558 20.5 12C20.5 16.6944 16.6944 20.5 12 20.5C7.30558 20.5 3.5 16.6944 3.5 12ZM12 2C6.47715 2 2 6.47715 2 12C2 17.5228 6.47715 22 12 22C17.5228 22 22 17.5228 22 12C22 6.47715 17.5228 2 12 2ZM12 7.25C10.7574 7.25 9.75 8.25736 9.75 9.5C9.75 9.91421 9.41421 10.25 9 10.25C8.58579 10.25 8.25 9.91421 8.25 9.5C8.25 7.42893 9.92893 5.75 12 5.75C14.0711 5.75 15.75 7.42893 15.75 9.5C15.75 10.889 14.9945 12.1006 13.8755 12.7479C13.544 12.9397 13.2465 13.1653 13.0395 13.4084C12.8357 13.6478 12.75 13.8663 12.75 14.0708V14.5C12.75 14.9142 12.4142 15.25 12 15.25C11.5858 15.25 11.25 14.9142 11.25 14.5V14.0708C11.25 13.4078 11.5388 12.8573 11.8973 12.4362C12.2526 12.0187 12.7051 11.692 13.1245 11.4494C13.7989 11.0593 14.25 10.3319 14.25 9.5C14.25 8.25736 13.2426 7.25 12 7.25ZM13 17.5C13 18.0523 12.5523 18.5 12 18.5C11.4477 18.5 11 18.0523 11 17.5C11 16.9477 11.4477 16.5 12 16.5C12.5523 16.5 13 16.9477 13 17.5Z" />
</svg>
