<svg width="24" height="24" viewBox="0 0 24 24"  xmlns="http://www.w3.org/2000/svg">
<path fill-rule="evenodd" clip-rule="evenodd" d="M19.5303 5.53033C19.8232 5.23744 19.8232 4.76256 19.5303 4.46967C19.2374 4.17678 18.7626 4.17678 18.4697 4.46967L3.46967 19.4697C3.17678 19.7626 3.17678 20.2374 3.46967 20.5303C3.76256 20.8232 4.23744 20.8232 4.53033 20.5303L19.5303 5.53033ZM12.0243 5.02307C13.6144 5.02307 14.9745 5.30214 16.1322 5.74645L14.9481 6.93058C14.0933 6.67538 13.123 6.52307 12.0243 6.52307C6.57905 6.52307 4.28618 10.2641 3.59229 11.7311C3.50342 11.919 3.50342 12.126 3.59229 12.3139C3.95715 13.0852 4.7641 14.4853 6.23898 15.6397L5.17145 16.7072C3.54442 15.3812 2.64274 13.8145 2.23633 12.9553C1.9554 12.3614 1.9554 11.6836 2.23633 11.0897C3.03112 9.40943 5.72011 5.02307 12.0243 5.02307ZM12 8C12.5543 8 13.0822 8.11279 13.562 8.31666L12.3538 9.52487C12.2382 9.50848 12.1201 9.5 12 9.5C10.6198 9.5 9.5 10.6199 9.5 12.0026C9.5 12.1219 9.50834 12.2393 9.52448 12.3542L8.31548 13.5632C8.11234 13.0836 8 12.5562 8 12.0026C8 9.79257 9.7903 8 12 8ZM15.683 10.4383L14.4749 11.6464C14.4914 11.7628 14.5 11.8817 14.5 12.0026C14.5 13.3853 13.3802 14.5051 12 14.5051C11.8783 14.5051 11.7587 14.4964 11.6417 14.4796L10.4344 15.6869C10.9152 15.8918 11.4443 16.0051 12 16.0051C14.2097 16.0051 16 14.2126 16 12.0026C16 11.4476 15.8871 10.9189 15.683 10.4383ZM12.0243 17.5219C10.8947 17.5219 9.90081 17.3609 9.02869 17.0926L7.84895 18.2724C9.02118 18.7319 10.4032 19.0219 12.0243 19.0219C18.3284 19.0219 21.0174 14.6355 21.8122 12.9553C22.0931 12.3614 22.0931 11.6836 21.8122 11.0897C21.4015 10.2215 20.4851 8.63068 18.8254 7.2959L17.7569 8.36439C19.2653 9.52641 20.0871 10.9506 20.4562 11.7311C20.5451 11.919 20.5451 12.126 20.4562 12.3139C19.7624 13.7808 17.4695 17.5219 12.0243 17.5219Z" />
</svg>
