<svg width="24" height="24" viewBox="0 0 24 24"  xmlns="http://www.w3.org/2000/svg">
<path fill-rule="evenodd" clip-rule="evenodd" d="M12.1503 3.5376C12.057 3.486 11.943 3.486 11.8497 3.5376C11.0944 3.95546 9.60259 4.74099 8.24435 5.20904C7.2203 5.56192 5.74781 5.61525 4.81319 5.61302C4.62623 5.61258 4.5 5.7609 4.5 5.89941V8.54022C4.5 13.2113 6.95957 17.5374 10.9736 19.9263L11.8721 20.4611C11.9509 20.508 12.0491 20.508 12.1279 20.4611L13.0264 19.9263C17.0404 17.5374 19.5 13.2113 19.5 8.54022V5.89941C19.5 5.7609 19.3738 5.61258 19.1868 5.61302C18.2522 5.61525 16.7797 5.56192 15.7557 5.20904C14.3974 4.74099 12.9057 3.95546 12.1503 3.5376ZM11.1236 2.22505C11.6687 1.92352 12.3313 1.92352 12.8764 2.22505C13.6191 2.63594 15.0161 3.36761 16.2443 3.79088C17.0014 4.05174 18.2386 4.11528 19.1832 4.11303C20.1512 4.11072 21 4.88305 21 5.89941V8.54022C21 13.7401 18.262 18.5559 13.7936 21.2153L12.895 21.7501C12.3435 22.0783 11.6565 22.0783 11.105 21.7501L10.2064 21.2153C5.73801 18.5559 3 13.7401 3 8.54022V5.89941C3 4.88305 3.84884 4.11072 4.81676 4.11303C5.76139 4.11528 6.99865 4.05174 7.75565 3.79088C8.98394 3.36761 10.3809 2.63594 11.1236 2.22505Z" />
</svg>
