<svg width="24" height="24" viewBox="0 0 24 24" xmlns="http://www.w3.org/2000/svg">
<path fill-rule="evenodd" clip-rule="evenodd" d="M16.2443 3.791C16.6592 3.93397 17.2097 4.03393 17.7756 4.10308L16.4726 5.40609C16.2186 5.35027 15.9762 5.28516 15.7557 5.20916C14.3974 4.74112 12.9057 3.95558 12.1503 3.53772C12.057 3.48612 11.943 3.48612 11.8497 3.53772C11.0944 3.95558 9.60259 4.74112 8.24435 5.20916C7.21968 5.56225 5.72339 5.6802 4.78734 5.72351C4.61543 5.73147 4.5 5.86964 4.5 6.00394V8.54034C4.5 11.0163 5.19106 13.3954 6.43837 15.4403L5.35026 16.5284C3.84055 14.1846 3 11.4215 3 8.54034V6.00394C3 5.03065 3.78351 4.26836 4.718 4.22511C5.66435 4.18132 6.95951 4.06535 7.75565 3.791C8.98394 3.36774 10.3809 2.63606 11.1236 2.22517C11.6687 1.92364 12.3313 1.92364 12.8764 2.22517C13.6191 2.63606 15.0161 3.36774 16.2443 3.791ZM19.5 6.62133L20.8438 5.27757C20.9439 5.49808 21 5.74345 21 6.00394V8.54034C21 13.7403 18.262 18.556 13.7936 21.2154L12.895 21.7502C12.3435 22.0784 11.6565 22.0784 11.105 21.7502L10.2064 21.2154C9.10633 20.5607 8.1111 19.7752 7.23579 18.8855L8.29651 17.8248C9.08486 18.6276 9.98177 19.3361 10.9736 19.9264L11.8721 20.4612C11.9509 20.5081 12.0491 20.5081 12.1279 20.4612L13.0264 19.9264C17.0404 17.5375 19.5 13.2115 19.5 8.54034V6.62133ZM21.7803 3.28037C22.0732 2.98747 22.0732 2.5126 21.7803 2.21971C21.4874 1.92681 21.0126 1.92681 20.7197 2.21971L2.21967 20.7197C1.92678 21.0126 1.92678 21.4875 2.21967 21.7804C2.51256 22.0733 2.98744 22.0733 3.28033 21.7804L21.7803 3.28037Z" />
</svg>
