<svg width="48" height="48" viewBox="0 0 48 48" xmlns="http://www.w3.org/2000/svg">
<rect y="6" width="48" height="29.3333" rx="2" fill="white"/>
<path fill-rule="evenodd" clip-rule="evenodd" d="M2 6C0.895431 6 0 6.89543 0 8V33.3333C0 34.4379 0.895431 35.3333 2 35.3333H46C47.1046 35.3333 48 34.4379 48 33.3333V8C48 6.89543 47.1046 6 46 6H2ZM2.6 7.6C2.04772 7.6 1.6 8.04771 1.6 8.6V32.7333C1.6 33.2856 2.04771 33.7333 2.6 33.7333H45.4C45.9523 33.7333 46.4 33.2856 46.4 32.7333V8.6C46.4 8.04772 45.9523 7.6 45.4 7.6H2.6Z" fill="currentColor"/>
<path fill-rule="evenodd" clip-rule="evenodd" d="M29.2478 17.6088C29.2484 16.6803 29.2489 15.7517 29.2483 14.8939C28.157 15.0453 27.0486 15.2418 25.9428 15.4379C25.0649 15.5935 24.1887 15.7489 23.324 15.8811V20.3236C24.2721 20.3206 25.2323 20.3223 26.1929 20.324C27.2155 20.3257 28.2385 20.3275 29.2474 20.3236C29.2467 19.4658 29.2473 18.5373 29.2478 17.6088ZM18.3879 16.6857L18.8055 16.6211C20.1412 16.4145 21.4926 16.2054 22.8304 16.0382C22.8311 16.7496 22.8308 17.4652 22.8304 18.1809C22.8301 18.8966 22.8298 19.6122 22.8304 20.3236C22.2158 20.3231 21.5987 20.3237 20.9812 20.3243H20.9806C20.1153 20.3251 19.2493 20.3259 18.3879 20.3236V16.6857ZM22.6202 20.817H22.6205L22.8304 20.8172C22.8304 21.3057 22.8307 21.7552 22.831 22.1924V22.1925C22.8316 23.032 22.8321 23.8264 22.8304 24.7646C22.1984 24.6708 21.5629 24.5659 20.9266 24.4608L20.9266 24.4608C20.0794 24.3209 19.231 24.1808 18.3879 24.0667V20.8172C19.5832 20.8133 21.9093 20.8161 22.6202 20.817ZM29.2474 20.8172V25.7533C27.3611 25.4708 25.4205 25.2077 23.5272 24.9511L23.324 24.9235C23.3228 24.2066 23.3234 23.539 23.324 22.8712V22.871C23.3247 22.2031 23.3253 21.535 23.324 20.8172H29.2474Z" fill="currentColor"/>
<path fill-rule="evenodd" clip-rule="evenodd" d="M27.3778 35L28.093 40.976C28.1532 41.4787 28.5796 41.8571 29.0859 41.8571H34.6779C35.3401 41.8571 35.9398 42.2647 36.2244 42.8981L36.2667 43H12.2667C12.5307 42.3088 13.1585 41.8571 13.8556 41.8571H18.9142C19.4205 41.8571 19.8469 41.4787 19.9071 40.976L20.6223 35H27.3778Z" fill="currentColor"/>
</svg>
