<svg width="24" height="24" viewBox="0 0 24 24"  xmlns="http://www.w3.org/2000/svg">
<path fill-rule="evenodd" clip-rule="evenodd" d="M3.5 10.875C3.5 6.8019 6.8019 3.5 10.875 3.5C14.9481 3.5 18.25 6.8019 18.25 10.875C18.25 14.9481 14.9481 18.25 10.875 18.25C6.8019 18.25 3.5 14.9481 3.5 10.875ZM10.875 2C5.97347 2 2 5.97347 2 10.875C2 15.7765 5.97347 19.75 10.875 19.75C12.9655 19.75 14.8871 19.0272 16.4037 17.818L20.2929 21.7071C20.6834 22.0976 21.3166 22.0976 21.7071 21.7071C22.0976 21.3166 22.0976 20.6834 21.7071 20.2929L17.818 16.4037C19.0272 14.8871 19.75 12.9655 19.75 10.875C19.75 5.97347 15.7765 2 10.875 2Z" />
</svg>
