<svg width="24" height="24" viewBox="0 0 24 24"  xmlns="http://www.w3.org/2000/svg">
<path fill-rule="evenodd" clip-rule="evenodd" d="M3.25 4C2.83579 4 2.5 3.66421 2.5 3.25C2.5 2.83579 2.83579 2.5 3.25 2.5L19.25 2.5C19.6642 2.5 20 2.83579 20 3.25C20 3.66422 19.6642 4 19.25 4L3.25 4ZM17.7713 15.9892C18.0691 15.7014 18.0771 15.2266 17.7892 14.9287C17.5014 14.6309 17.0265 14.6229 16.7287 14.9108L12 19.4819L12 7.25C12 6.83579 11.6642 6.5 11.25 6.5C10.8358 6.5 10.5 6.83579 10.5 7.25L10.5 19.4819L5.77127 14.9108C5.47345 14.6229 4.99865 14.6309 4.71076 14.9287C4.42287 15.2265 4.43092 15.7014 4.72873 15.9892L10.7287 21.7892C11.0194 22.0703 11.4806 22.0703 11.7713 21.7892L17.7713 15.9892Z" />
</svg>
