<svg width="24" height="24" viewBox="0 0 24 24"  xmlns="http://www.w3.org/2000/svg">
<path fill-rule="evenodd" clip-rule="evenodd" d="M17.7562 3.57322C17.6586 3.47559 17.5003 3.47559 17.4027 3.57322L16.0875 4.88844L19.111 7.91202L20.4263 6.59681C20.5239 6.49918 20.5239 6.34089 20.4263 6.24326L17.7562 3.57322ZM6.32798 12.5266L14.4899 4.36472L14.4964 4.35807L14.5031 4.3515L16.342 2.51256C17.0254 1.82914 18.1335 1.82915 18.8169 2.51256L21.4869 5.1826C22.1703 5.86601 22.1703 6.97405 21.4869 7.65747L11.4729 17.6715C11.3806 17.7638 11.2658 17.8304 11.1399 17.8647L7.21239 18.9359C5.90602 19.2922 4.70731 18.0935 5.0636 16.7871L6.13473 12.8596C6.16907 12.7337 6.23568 12.6189 6.32798 12.5266ZM18.0504 8.97269L15.0268 5.9491L7.52947 13.4464L6.51074 17.1818C6.45985 17.3684 6.63109 17.5396 6.81771 17.4887L10.5531 16.47L18.0504 8.97269ZM2.75 20.5C2.33579 20.5 2 20.8358 2 21.25C2 21.6642 2.33579 22 2.75 22H21.25C21.6642 22 22 21.6642 22 21.25C22 20.8358 21.6642 20.5 21.25 20.5H2.75Z" />
</svg>
