<svg width="24" height="24" viewBox="0 0 24 24" fill="none" xmlns="http://www.w3.org/2000/svg">
<path fill-rule="evenodd" clip-rule="evenodd" d="M5.75 3C4.23122 3 3 4.23122 3 5.75V18.25C3 19.7688 4.23122 21 5.75 21H18.25C19.7688 21 21 19.7688 21 18.25V5.75C21 4.23122 19.7688 3 18.25 3H5.75ZM4.5 5.75C4.5 5.05964 5.05964 4.5 5.75 4.5H18.25C18.9404 4.5 19.5 5.05964 19.5 5.75V18.25C19.5 18.9404 18.9404 19.5 18.25 19.5H5.75C5.05964 19.5 4.5 18.9404 4.5 18.25V5.75ZM12 7C12.4142 7 12.75 7.33579 12.75 7.75V11.25H16.25C16.6642 11.25 17 11.5858 17 12C17 12.4142 16.6642 12.75 16.25 12.75H12.75V16.25C12.75 16.6642 12.4142 17 12 17C11.5858 17 11.25 16.6642 11.25 16.25V12.75H7.75C7.33579 12.75 7 12.4142 7 12C7 11.5858 7.33579 11.25 7.75 11.25H11.25V7.75C11.25 7.33579 11.5858 7 12 7Z" fill="#222222"/>
</svg>
