<svg width="24" height="24" viewBox="0 0 24 24" fill="none" xmlns="http://www.w3.org/2000/svg">
<path fill-rule="evenodd" clip-rule="evenodd" d="M4.00035 11.9996C4.00042 7.58153 7.582 4 12.0001 4C16.4182 4 19.9998 7.5816 19.9998 11.9997C19.9998 16.4179 16.4182 19.9995 12.0001 19.9995L11.9526 19.9993H11.9482H4V12.7496H4.00034L4.00035 11.9996ZM12.0001 2.5C7.006 2.5 2.91199 6.35369 2.52953 11.2496H2.5V11.9996V20.7493V21.4993H3.25H11.9482L12.0001 21.4995C17.2466 21.4995 21.4998 17.2463 21.4998 11.9997C21.4998 6.75318 17.2466 2.5 12.0001 2.5ZM8.11095 12.9715C8.64785 12.9715 9.0831 12.5363 9.0831 11.9994C9.0831 11.4625 8.64785 11.0272 8.11095 11.0272C7.57405 11.0272 7.13881 11.4625 7.13881 11.9994C7.13881 12.5363 7.57405 12.9715 8.11095 12.9715ZM12.9719 11.9994C12.9719 12.5363 12.5367 12.9715 11.9998 12.9715C11.4629 12.9715 11.0276 12.5363 11.0276 11.9994C11.0276 11.4625 11.4629 11.0272 11.9998 11.0272C12.5367 11.0272 12.9719 11.4625 12.9719 11.9994ZM15.8888 12.9715C16.4257 12.9715 16.861 12.5363 16.861 11.9994C16.861 11.4625 16.4257 11.0272 15.8888 11.0272C15.3519 11.0272 14.9167 11.4625 14.9167 11.9994C14.9167 12.5363 15.3519 12.9715 15.8888 12.9715Z" fill="#222222"/>
</svg>
