<svg width="24" height="24" viewBox="0 0 24 24" fill="none" xmlns="http://www.w3.org/2000/svg">
<path fill-rule="evenodd" clip-rule="evenodd" d="M9.87579 2C8.357 2 7.12579 3.23122 7.12579 4.75V6.25H5.75171C4.23293 6.25 3.00171 7.48122 3.00171 9V19.25C3.00171 20.7688 4.23293 22 5.75171 22H14.124C15.6428 22 16.874 20.7688 16.874 19.25V17.75H18.2481C19.7669 17.75 20.9981 16.5188 20.9981 15V4.75C20.9981 3.23122 19.7669 2 18.2481 2H9.87579ZM16.874 16.25H18.2481C18.9385 16.25 19.4981 15.6904 19.4981 15V4.75C19.4981 4.05964 18.9385 3.5 18.2481 3.5H9.87579C9.18543 3.5 8.62579 4.05964 8.62579 4.75V6.25H14.124C15.6428 6.25 16.874 7.48122 16.874 9V16.25ZM4.50171 9C4.50171 8.30964 5.06135 7.75 5.75171 7.75H14.124C14.8144 7.75 15.374 8.30964 15.374 9V19.25C15.374 19.9404 14.8144 20.5 14.124 20.5H5.75171C5.06135 20.5 4.50171 19.9404 4.50171 19.25V9Z" fill="#222222"/>
</svg>
