<svg width="24" height="24" viewBox="0 0 24 24" fill="none" xmlns="http://www.w3.org/2000/svg">
<path fill-rule="evenodd" clip-rule="evenodd" d="M12 2C10.8954 2 10 2.89543 10 4H3.75C3.33579 4 3 4.33579 3 4.75C3 5.16421 3.33579 5.5 3.75 5.5H5V19.25C5 20.7688 6.23122 22 7.75 22H16.25C17.7688 22 19 20.7688 19 19.25V5.5H20.25C20.6642 5.5 21 5.16421 21 4.75C21 4.33579 20.6642 4 20.25 4H14C14 2.89543 13.1046 2 12 2ZM17.5 5.5H6.5V19.25C6.5 19.9404 7.05964 20.5 7.75 20.5H16.25C16.9404 20.5 17.5 19.9404 17.5 19.25V5.5ZM10.5 8.75C10.5 8.33579 10.1642 8 9.75 8C9.33579 8 9 8.33579 9 8.75V8.7683V8.78657V8.80483V8.82306V8.84128V8.85948V8.87766V8.89581V8.91395V8.93207V8.95017V8.96825V8.98632V9.00436V9.02238V9.04039V9.05838V9.07635V9.0943V9.11223V9.13014V9.14803V9.16591V9.18377V9.20161V9.21943V9.23723V9.25502V9.27279V9.29054V9.30827V9.32599V9.34368V9.36137V9.37903V9.39667V9.4143V9.43192V9.44951V9.46709V9.48465V9.50219V9.51972V9.53723V9.55473V9.5722V9.58966V9.60711V9.62454V9.64195V9.65935V9.67673V9.69409V9.71144V9.72878V9.74609V9.7634V9.78068V9.79795V9.81521V9.83245V9.84967V9.86688V9.88408V9.90126V9.91842V9.93557V9.95271V9.96983V9.98694V10.004V10.0211V10.0382V10.0552V10.0723V10.0893V10.1063V10.1233V10.1402V10.1572V10.1742V10.1911V10.208V10.2249V10.2418V10.2587V10.2756V10.2924V10.3093V10.3261V10.3429V10.3597V10.3765V10.3933V10.4101V10.4268V10.4436V10.4603V10.477V10.4937V10.5104V10.5271V10.5438V10.5604V10.5771V10.5937V10.6103V10.6269V10.6435V10.6601V10.6767V10.6933V10.7098V10.7264V10.7429V10.7594V10.7759V10.7924V10.8089V10.8254V10.8418V10.8583V10.8747V10.8912V10.9076V10.924V10.9404V10.9568V10.9732V10.9896V11.0059V11.0223V11.0386V11.055V11.0713V11.0876V11.1039V11.1202V11.1365V11.1528V11.169V11.1853V11.2016V11.2178V11.234V11.2503V11.2665V11.2827V11.2989V11.3151V11.3313V11.3474V11.3636V11.3798V11.3959V11.4121V11.4282V11.4443V11.4604V11.4766V11.4927V11.5088V11.5248V11.5409V11.557V11.5731V11.5891V11.6052V11.6212V11.6373V11.6533V11.6693V11.6854V11.7014V11.7174V11.7334V11.7494V11.7654V11.7814V11.7973V11.8133V11.8293V11.8452V11.8612V11.8771V11.8931V11.909V11.925V11.9409V11.9568V11.9727V11.9886V12.0045V12.0204V12.0363V12.0522V12.0681V12.084V12.0999V12.1157V12.1316V12.1475V12.1633V12.1792V12.1951V12.2109V12.2267V12.2426V12.2584V12.2743V12.2901V12.3059V12.3217V12.3376V12.3534V12.3692V12.385V12.4008V12.4166V12.4324V12.4482V12.464V12.4798V12.4956V12.5114V12.5272V12.5429V12.5587V12.5745V12.5903V12.6061V12.6218V12.6376V12.6534V12.6691V12.6849V12.7007V12.7164V12.7322V12.748V12.7637V12.7795V12.7952V12.811V12.8267V12.8425V12.8582V12.874V12.8897V12.9055V12.9213V12.937V12.9528V12.9685V12.9843V13V13.0157V13.0315V13.0472V13.063V13.0787V13.0945V13.1103V13.126V13.1418V13.1575V13.1733V13.189V13.2048V13.2205V13.2363V13.252V13.2678V13.2836V13.2993V13.3151V13.3309V13.3466V13.3624V13.3782V13.3939V13.4097V13.4255V13.4413V13.4571V13.4728V13.4886V13.5044V13.5202V13.536V13.5518V13.5676V13.5834V13.5992V13.615V13.6308V13.6466V13.6624V13.6783V13.6941V13.7099V13.7257V13.7416V13.7574V13.7733V13.7891V13.8049V13.8208V13.8367V13.8525V13.8684V13.8843V13.9001V13.916V13.9319V13.9478V13.9637V13.9796V13.9955V14.0114V14.0273V14.0432V14.0591V14.0751V14.091V14.1069V14.1229V14.1388V14.1548V14.1707V14.1867V14.2027V14.2186V14.2346V14.2506V14.2666V14.2826V14.2986V14.3146V14.3307V14.3467V14.3627V14.3788V14.3948V14.4109V14.4269V14.443V14.4591V14.4752V14.4912V14.5073V14.5234V14.5396V14.5557V14.5718V14.5879V14.6041V14.6202V14.6364V14.6526V14.6687V14.6849V14.7011V14.7173V14.7335V14.7497V14.766V14.7822V14.7984V14.8147V14.831V14.8472V14.8635V14.8798V14.8961V14.9124V14.9287V14.945V14.9614V14.9777V14.9941V15.0104V15.0268V15.0432V15.0596V15.076V15.0924V15.1088V15.1253V15.1417V15.1582V15.1746V15.1911V15.2076V15.2241V15.2406V15.2571V15.2736V15.2902V15.3067V15.3233V15.3399V15.3565V15.3731V15.3897V15.4063V15.4229V15.4396V15.4562V15.4729V15.4896V15.5063V15.523V15.5397V15.5564V15.5732V15.5899V15.6067V15.6235V15.6403V15.6571V15.6739V15.6907V15.7076V15.7244V15.7413V15.7582V15.7751V15.792V15.8089V15.8258V15.8428V15.8598V15.8767V15.8937V15.9107V15.9277V15.9448V15.9618V15.9789V15.996V16.0131V16.0302V16.0473V16.0644V16.0816V16.0987V16.1159V16.1331V16.1503V16.1676V16.1848V16.202V16.2193V16.2366V16.2539V16.2712V16.2886V16.3059V16.3233V16.3407V16.358V16.3755V16.3929V16.4103V16.4278V16.4453V16.4628V16.4803V16.4978V16.5154V16.5329V16.5505V16.5681V16.5857V16.6033V16.621V16.6386V16.6563V16.674V16.6917V16.7095V16.7272V16.745V16.7628V16.7806V16.7984V16.8162V16.8341V16.852V16.8699V16.8878V16.9057V16.9237V16.9416V16.9596V16.9776V16.9956V17.0137V17.0317V17.0498V17.0679V17.086V17.1042V17.1223V17.1405V17.1587V17.1769V17.1952V17.2134V17.2317V17.25C9 17.6642 9.33579 18 9.75 18C10.1642 18 10.5 17.6642 10.5 17.25V17.2317V17.2134V17.1952V17.1769V17.1587V17.1405V17.1223V17.1042V17.086V17.0679V17.0498V17.0317V17.0137V16.9956V16.9776V16.9596V16.9416V16.9237V16.9057V16.8878V16.8699V16.852V16.8341V16.8162V16.7984V16.7806V16.7628V16.745V16.7272V16.7095V16.6917V16.674V16.6563V16.6386V16.621V16.6033V16.5857V16.5681V16.5505V16.5329V16.5154V16.4978V16.4803V16.4628V16.4453V16.4278V16.4103V16.3929V16.3755V16.358V16.3407V16.3233V16.3059V16.2886V16.2712V16.2539V16.2366V16.2193V16.202V16.1848V16.1676V16.1503V16.1331V16.1159V16.0987V16.0816V16.0644V16.0473V16.0302V16.0131V15.996V15.9789V15.9618V15.9448V15.9277V15.9107V15.8937V15.8767V15.8598V15.8428V15.8258V15.8089V15.792V15.7751V15.7582V15.7413V15.7244V15.7076V15.6907V15.6739V15.6571V15.6403V15.6235V15.6067V15.5899V15.5732V15.5564V15.5397V15.523V15.5063V15.4896V15.4729V15.4562V15.4396V15.4229V15.4063V15.3897V15.3731V15.3565V15.3399V15.3233V15.3067V15.2902V15.2736V15.2571V15.2406V15.2241V15.2076V15.1911V15.1746V15.1582V15.1417V15.1253V15.1088V15.0924V15.076V15.0596V15.0432V15.0268V15.0104V14.9941V14.9777V14.9614V14.945V14.9287V14.9124V14.8961V14.8798V14.8635V14.8472V14.831V14.8147V14.7984V14.7822V14.766V14.7497V14.7335V14.7173V14.7011V14.6849V14.6687V14.6526V14.6364V14.6202V14.6041V14.5879V14.5718V14.5557V14.5396V14.5234V14.5073V14.4912V14.4752V14.4591V14.443V14.4269V14.4109V14.3948V14.3788V14.3627V14.3467V14.3307V14.3146V14.2986V14.2826V14.2666V14.2506V14.2346V14.2186V14.2027V14.1867V14.1707V14.1548V14.1388V14.1229V14.1069V14.091V14.0751V14.0591V14.0432V14.0273V14.0114V13.9955V13.9796V13.9637V13.9478V13.9319V13.916V13.9001V13.8843V13.8684V13.8525V13.8367V13.8208V13.8049V13.7891V13.7733V13.7574V13.7416V13.7257V13.7099V13.6941V13.6783V13.6624V13.6466V13.6308V13.615V13.5992V13.5834V13.5676V13.5518V13.536V13.5202V13.5044V13.4886V13.4728V13.4571V13.4413V13.4255V13.4097V13.3939V13.3782V13.3624V13.3466V13.3309V13.3151V13.2993V13.2836V13.2678V13.252V13.2363V13.2205V13.2048V13.189V13.1733V13.1575V13.1418V13.126V13.1103V13.0945V13.0787V13.063V13.0472V13.0315V13.0157V13V12.9843V12.9685V12.9528V12.937V12.9213V12.9055V12.8897V12.874V12.8582V12.8425V12.8267V12.811V12.7952V12.7795V12.7637V12.748V12.7322V12.7164V12.7007V12.6849V12.6691V12.6534V12.6376V12.6218V12.6061V12.5903V12.5745V12.5587V12.5429V12.5272V12.5114V12.4956V12.4798V12.464V12.4482V12.4324V12.4166V12.4008V12.385V12.3692V12.3534V12.3376V12.3217V12.3059V12.2901V12.2743V12.2584V12.2426V12.2267V12.2109V12.1951V12.1792V12.1633V12.1475V12.1316V12.1157V12.0999V12.084V12.0681V12.0522V12.0363V12.0204V12.0045V11.9886V11.9727V11.9568V11.9409V11.925V11.909V11.8931V11.8771V11.8612V11.8452V11.8293V11.8133V11.7973V11.7814V11.7654V11.7494V11.7334V11.7174V11.7014V11.6854V11.6693V11.6533V11.6373V11.6212V11.6052V11.5891V11.5731V11.557V11.5409V11.5248V11.5088V11.4927V11.4766V11.4604V11.4443V11.4282V11.4121V11.3959V11.3798V11.3636V11.3474V11.3313V11.3151V11.2989V11.2827V11.2665V11.2503V11.234V11.2178V11.2016V11.1853V11.169V11.1528V11.1365V11.1202V11.1039V11.0876V11.0713V11.055V11.0386V11.0223V11.0059V10.9896V10.9732V10.9568V10.9404V10.924V10.9076V10.8912V10.8747V10.8583V10.8418V10.8254V10.8089V10.7924V10.7759V10.7594V10.7429V10.7264V10.7098V10.6933V10.6767V10.6601V10.6435V10.6269V10.6103V10.5937V10.5771V10.5604V10.5438V10.5271V10.5104V10.4937V10.477V10.4603V10.4436V10.4268V10.4101V10.3933V10.3765V10.3597V10.3429V10.3261V10.3093V10.2924V10.2756V10.2587V10.2418V10.2249V10.208V10.1911V10.1742V10.1572V10.1402V10.1233V10.1063V10.0893V10.0723V10.0552V10.0382V10.0211V10.004V9.98694V9.96983V9.95271V9.93557V9.91842V9.90126V9.88408V9.86688V9.84967V9.83245V9.81521V9.79795V9.78068V9.7634V9.74609V9.72878V9.71144V9.69409V9.67673V9.65935V9.64195V9.62454V9.60711V9.58966V9.5722V9.55473V9.53723V9.51972V9.50219V9.48465V9.46709V9.44951V9.43192V9.4143V9.39667V9.37903V9.36137V9.34368V9.32599V9.30827V9.29054V9.27279V9.25502V9.23723V9.21943V9.20161V9.18377V9.16591V9.14803V9.13014V9.11223V9.0943V9.07635V9.05838V9.04039V9.02238V9.00436V8.98632V8.96825V8.95017V8.93207V8.91395V8.89581V8.87766V8.85948V8.84128V8.82306V8.80483V8.78657V8.7683V8.75ZM14.25 8C14.6642 8 15 8.33579 15 8.75V17.25C15 17.6642 14.6642 18 14.25 18C13.8358 18 13.5 17.6642 13.5 17.25V8.75C13.5 8.33579 13.8358 8 14.25 8Z" fill="#222222"/>
</svg>
