<svg width="24" height="24" viewBox="0 0 24 24" fill="none" xmlns="http://www.w3.org/2000/svg">
<path fill-rule="evenodd" clip-rule="evenodd" d="M4.75 4C3.23122 4 2 5.23122 2 6.75V16.25C2 18.3211 3.67893 20 5.75 20H18.25C20.3211 20 22 18.3211 22 16.25V6.75C22 5.23122 20.7688 4 19.25 4H4.75ZM4.60335 5.50851C4.65145 5.50289 4.70039 5.5 4.75 5.5H19.25C19.2996 5.5 19.3485 5.50289 19.3967 5.50851L12 12.4701L4.60335 5.50851ZM3.51663 6.54559C3.50569 6.6121 3.5 6.68039 3.5 6.75V16.25C3.5 17.4926 4.50736 18.5 5.75 18.5H18.25C19.4926 18.5 20.5 17.4926 20.5 16.25V6.75C20.5 6.68039 20.4943 6.6121 20.4834 6.54559L12.514 14.0462C12.2252 14.318 11.7748 14.318 11.486 14.0462L3.51663 6.54559Z" fill="#222222"/>
</svg>
