<svg width="24" height="24" viewBox="0 0 24 24" fill="none" xmlns="http://www.w3.org/2000/svg">
<path fill-rule="evenodd" clip-rule="evenodd" d="M3.59229 11.7311C4.28618 10.2641 6.57905 6.52307 12.0243 6.52307C17.4695 6.52307 19.7624 10.2641 20.4562 11.7311C20.5451 11.919 20.5451 12.126 20.4562 12.3139C19.7624 13.7808 17.4695 17.5219 12.0243 17.5219C6.57905 17.5219 4.28618 13.7808 3.59229 12.3139C3.50342 12.126 3.50342 11.919 3.59229 11.7311ZM12.0243 5.02307C5.72011 5.02307 3.03112 9.40943 2.23633 11.0897C1.9554 11.6836 1.9554 12.3614 2.23633 12.9553C3.03112 14.6355 5.72011 19.0219 12.0243 19.0219C18.3284 19.0219 21.0174 14.6355 21.8122 12.9553C22.0931 12.3614 22.0931 11.6836 21.8122 11.0897C21.0174 9.40943 18.3284 5.02307 12.0243 5.02307ZM9.5 12.0026C9.5 10.6199 10.6198 9.5 12 9.5C13.3802 9.5 14.5 10.6199 14.5 12.0026C14.5 13.3853 13.3802 14.5051 12 14.5051C10.6198 14.5051 9.5 13.3853 9.5 12.0026ZM12 8C9.7903 8 8 9.79257 8 12.0026C8 14.2126 9.7903 16.0051 12 16.0051C14.2097 16.0051 16 14.2126 16 12.0026C16 9.79257 14.2097 8 12 8Z" fill="#222222"/>
</svg>
