<svg width="24" height="24" viewBox="0 0 24 24" fill="none" xmlns="http://www.w3.org/2000/svg">
<path fill-rule="evenodd" clip-rule="evenodd" d="M2.86335 4.89476C1.88292 3.76115 2.68822 2 4.18698 2H19.813C21.3118 2 22.1171 3.76115 21.1367 4.89477L15.0545 11.9272C14.8581 12.1543 14.75 12.4446 14.75 12.7449V19C14.75 19.271 14.6039 19.5208 14.3677 19.6537L10.3677 21.9037C10.1355 22.0343 9.85137 22.0319 9.62137 21.8974C9.39137 21.7629 9.25 21.5164 9.25 21.25V12.7449C9.25 12.4446 9.14189 12.1543 8.94546 11.9272L2.86335 4.89476ZM4.18698 3.5C3.97287 3.5 3.85783 3.75159 3.99789 3.91354L10.08 10.946C10.5122 11.4457 10.75 12.0842 10.75 12.7449V19.9676L13.25 18.5614V12.7449C13.25 12.0842 13.4878 11.4457 13.92 10.946L20.0021 3.91354C20.1422 3.75159 20.0271 3.5 19.813 3.5H4.18698Z" fill="#222222"/>
</svg>
