<svg width="24" height="24" viewBox="0 0 24 24" fill="none" xmlns="http://www.w3.org/2000/svg">
<path fill-rule="evenodd" clip-rule="evenodd" d="M9.45591 3.88728C7.26942 4.57225 5.46307 6.11676 4.43264 8.125H7.75032C7.95813 7.10623 8.24642 6.17875 8.60044 5.3822C8.84864 4.82376 9.13429 4.31809 9.45591 3.88728ZM7.54232 9.375H4C3.97115 9.375 3.94275 9.37304 3.91494 9.36926C3.64559 10.1976 3.5 11.0818 3.5 12C3.5 12.9182 3.64559 13.8024 3.91494 14.6307C3.94275 14.627 3.97115 14.625 4 14.625H7.54232C7.43302 13.7889 7.375 12.9078 7.375 12C7.375 11.0922 7.43302 10.2111 7.54232 9.375ZM8.80371 14.625C8.6881 13.8009 8.625 12.9192 8.625 12C8.625 11.0808 8.6881 10.1991 8.80371 9.375H15.1963C15.3119 10.1991 15.375 11.0808 15.375 12C15.375 12.9192 15.3119 13.8009 15.1963 14.625H8.80371ZM7.75032 15.875H4.43264C5.46307 17.8832 7.26942 19.4277 9.45591 20.1127C9.13429 19.6819 8.84864 19.1762 8.60044 18.6178C8.24642 17.8212 7.95813 16.8938 7.75032 15.875ZM14.5441 20.1127C16.7306 19.4277 18.5369 17.8832 19.5674 15.875H16.2497C16.0419 16.8938 15.7536 17.8212 15.3996 18.6178C15.1514 19.1762 14.8657 19.6819 14.5441 20.1127ZM14.9718 15.875C14.7861 16.7126 14.5432 17.4668 14.2573 18.1101C13.9166 18.8767 13.5271 19.4584 13.1261 19.84C12.7284 20.2185 12.3489 20.375 12 20.375C11.6511 20.375 11.2716 20.2185 10.8739 19.84C10.4729 19.4584 10.0834 18.8767 9.74271 18.1101C9.45678 17.4668 9.21385 16.7126 9.02825 15.875H14.9718ZM16.4577 14.625H20.0869C20.3551 13.7983 20.5 12.9161 20.5 12C20.5 11.0839 20.3551 10.2017 20.0869 9.375H16.4577C16.567 10.2111 16.625 11.0922 16.625 12C16.625 12.9078 16.567 13.7889 16.4577 14.625ZM16.2497 8.125H19.5674C18.5369 6.11676 16.7306 4.57225 14.5441 3.88728C14.8657 4.31809 15.1514 4.82376 15.3996 5.3822C15.7536 6.17875 16.0419 7.10623 16.2497 8.125ZM14.9718 8.125H9.02825C9.21385 7.28738 9.45678 6.53322 9.74271 5.88988C10.0834 5.12327 10.4729 4.54159 10.8739 4.16001C11.2716 3.7815 11.6511 3.625 12 3.625C12.3489 3.625 12.7284 3.7815 13.1261 4.16001C13.5271 4.54159 13.9166 5.12327 14.2573 5.88988C14.5432 6.53322 14.7861 7.28738 14.9718 8.125ZM12 2C6.47715 2 2 6.47715 2 12C2 17.5228 6.47715 22 12 22C17.5228 22 22 17.5228 22 12C22 6.47715 17.5228 2 12 2Z" fill="#222222"/>
</svg>
