<svg width="24" height="24" viewBox="0 0 24 24" fill="none" xmlns="http://www.w3.org/2000/svg">
<path fill-rule="evenodd" clip-rule="evenodd" d="M19.75 3C21.2688 3 22.5 4.23122 22.5 5.75V18.25C22.5 19.7688 21.2688 21 19.75 21H10.75C9.23122 21 8 19.7688 8 18.25V16.75C8 16.3358 8.33579 16 8.75 16C9.16421 16 9.5 16.3358 9.5 16.75V18.25C9.5 18.9404 10.0596 19.5 10.75 19.5H19.75C20.4404 19.5 21 18.9404 21 18.25V5.75C21 5.05964 20.4404 4.5 19.75 4.5H10.75C10.0596 4.5 9.5 5.05964 9.5 5.75V7.25C9.5 7.66421 9.16421 8 8.75 8C8.33579 8 8 7.66421 8 7.25V5.75C8 4.23122 9.23122 3 10.75 3H19.75ZM12.7803 8.46967C12.4874 8.17678 12.0126 8.17678 11.7197 8.46967C11.4268 8.76256 11.4268 9.23744 11.7197 9.53033L13.4393 11.25H2.25C1.83579 11.25 1.5 11.5858 1.5 12C1.5 12.4142 1.83579 12.75 2.25 12.75H13.4393L11.7197 14.4697C11.4268 14.7626 11.4268 15.2374 11.7197 15.5303C12.0126 15.8232 12.4874 15.8232 12.7803 15.5303L15.7803 12.5303C16.0732 12.2374 16.0732 11.7626 15.7803 11.4697L12.7803 8.46967Z" fill="#222222"/>
</svg>
