<svg width="24" height="24" viewBox="0 0 24 24" fill="none" xmlns="http://www.w3.org/2000/svg">
<path fill-rule="evenodd" clip-rule="evenodd" d="M11.625 6.75C12.6605 6.75 13.5 5.91053 13.5 4.875C13.5 3.83947 12.6605 3 11.625 3C10.5895 3 9.75 3.83947 9.75 4.875C9.75 5.91053 10.5895 6.75 11.625 6.75ZM13.5 10.05H13.3749C13.4561 10.3017 13.5 10.5702 13.5 10.849V17.7H15.975C16.4721 17.7 16.875 18.1029 16.875 18.6C16.875 19.0971 16.4721 19.5 15.975 19.5H8.025C7.52794 19.5 7.125 19.0971 7.125 18.6C7.125 18.1029 7.52794 17.7 8.025 17.7H10.875V10.05H9.15C8.65294 10.05 8.25 9.64706 8.25 9.15C8.25 8.65294 8.65294 8.25 9.15 8.25H10.901H12.5C13.0523 8.25 13.5 8.69772 13.5 9.25V10.05Z" fill="black"/>
</svg>
