<svg width="24" height="24" viewBox="0 0 24 24" fill="none" xmlns="http://www.w3.org/2000/svg">
<g clip-path="url(#clip0_41545_479)">
<path fill-rule="evenodd" clip-rule="evenodd" d="M19.9759 4.02413C19.277 3.32529 18.144 3.32529 17.4452 4.02412L12 9.4693L6.55482 4.02413C5.85599 3.32529 4.72296 3.32529 4.02413 4.02413C3.32529 4.72296 3.32529 5.85599 4.02412 6.55482L9.4693 12L4.02413 17.4452C3.32529 18.144 3.32529 19.277 4.02413 19.9759C4.72296 20.6747 5.85599 20.6747 6.55482 19.9759L12 14.5307L17.4452 19.9759C18.144 20.6747 19.277 20.6747 19.9759 19.9759C20.6747 19.277 20.6747 18.144 19.9759 17.4452L14.5307 12L19.9759 6.55482C20.6747 5.85599 20.6747 4.72296 19.9759 4.02413Z" fill="black"/>
</g>
<defs>
<clipPath id="clip0_41545_479">
<rect width="17" height="17" fill="white" transform="translate(3.5 3.5)"/>
</clipPath>
</defs>
</svg>
