<svg width="24" height="24" viewBox="0 0 24 24" fill="none" xmlns="http://www.w3.org/2000/svg">
<path fill-rule="evenodd" clip-rule="evenodd" d="M8.5 7.50001C8.5 5.56701 10.067 4 12 4C13.933 4 15.5 5.56701 15.5 7.50001C15.5 8.79425 14.7981 9.92572 13.7493 10.5324C13.6696 10.5785 13.5879 10.6216 13.5045 10.6614C12.4057 11.1855 11 12.297 11 14V15C11 15.5523 11.4477 16 12 16C12.5523 16 13 15.5523 13 15V14C13 13.494 13.4703 12.8935 14.3655 12.4665C14.4969 12.4038 14.6254 12.3361 14.7507 12.2636C16.3921 11.3141 17.5 9.53705 17.5 7.50001C17.5 4.46244 15.0376 2 12 2C8.96244 2 6.5 4.46244 6.5 7.50001C6.5 8.0523 6.94772 8.50001 7.5 8.50001C8.05228 8.50001 8.5 8.0523 8.5 7.50001ZM11.9999 21C12.8283 21 13.4999 20.3284 13.4999 19.5C13.4999 18.6716 12.8283 18 11.9999 18C11.1715 18 10.4999 18.6716 10.4999 19.5C10.4999 20.3284 11.1715 21 11.9999 21Z" fill="black"/>
</svg>
