<svg width="16" height="16" viewBox="0 0 16 16" fill="none" xmlns="http://www.w3.org/2000/svg">
<g clip-path="url(#clip0_28237_27868)">
<path fill-rule="evenodd" clip-rule="evenodd" d="M3.77748 3.77748C3.40751 4.14745 3.40751 4.74729 3.77748 5.11726L6.66022 8L3.77748 10.8827C3.40751 11.2527 3.40751 11.8526 3.77748 12.2225C4.14745 12.5925 4.74729 12.5925 5.11726 12.2225L8 9.33978L10.8827 12.2225C11.2527 12.5925 11.8526 12.5925 12.2225 12.2225C12.5925 11.8526 12.5925 11.2527 12.2225 10.8827L9.33978 8L12.2225 5.11726C12.5925 4.74729 12.5925 4.14745 12.2225 3.77748C11.8526 3.40751 11.2527 3.40751 10.8827 3.77748L8 6.66022L5.11726 3.77748C4.74729 3.40751 4.14745 3.40751 3.77748 3.77748Z" fill="#ED0008"/>
</g>
<defs>
<clipPath id="clip0_28237_27868">
<rect width="9" height="9" fill="white" transform="translate(3.5 3.5)"/>
</clipPath>
</defs>
</svg>
