<svg width="16" height="16" viewBox="0 0 16 16" fill="none" xmlns="http://www.w3.org/2000/svg">
<path fill-rule="evenodd" clip-rule="evenodd" d="M5.75 5.5C5.75 4.25549 6.78361 3.25 8 3.25C9.21639 3.25 10.25 4.25549 10.25 5.5C10.25 6.30156 9.81486 6.94113 9.11731 7.35498C8.22416 7.88489 7.25 8.95954 7.25 10.2356V10.5C7.25 10.9142 7.58579 11.25 8 11.25C8.41421 11.25 8.75 10.9142 8.75 10.5V10.2356C8.75 9.70506 9.22207 9.03697 9.88269 8.64502C10.9428 8.01605 11.75 6.93083 11.75 5.5C11.75 3.41358 10.0313 1.75 8 1.75C5.96873 1.75 4.25 3.41358 4.25 5.5C4.25 5.91421 4.58579 6.25 5 6.25C5.41421 6.25 5.75 5.91421 5.75 5.5ZM8 14C7.44855 14 7 13.5515 7 13C7 12.4487 7.44855 12 8 12C8.55145 12 9 12.4487 9 13C9 13.5515 8.55145 14 8 14Z" fill="#555555"/>
</svg>
