<svg width="40" height="40" viewBox="0 0 40 40" fill="none" xmlns="http://www.w3.org/2000/svg">
<g clip-path="url(#clip0_37343_5156)">
<path opacity="0.65" d="M18.5232 33.1607C18.7321 33.2968 18.9981 33.3823 19.3463 33.3633C20.7108 33.2873 21.5307 31.6728 22.0436 30.609C23.5537 27.4876 24.7567 24.2173 25.6304 20.8615C25.6906 20.6272 25.7602 20.374 25.9502 20.222C26.1338 20.0732 26.3871 20.0542 26.6213 20.0384C28.6949 19.8959 32.2026 19.9909 33.2885 17.7717C33.7697 16.7871 33.4785 15.5176 32.6902 14.7547C31.4144 13.52 29.0147 13.9727 27.3969 14.0677C25.6558 14.169 23.9146 14.2671 22.1734 14.3684C20.2549 14.4792 18.3269 14.5109 16.4179 14.7578C14.8413 14.9604 12.8944 15.0206 11.7389 16.2363C11.283 16.7175 10.9696 17.376 11.0519 18.0344C11.0519 18.0376 11.0519 18.0439 11.055 18.0471C11.074 18.1896 11.112 18.3225 11.1627 18.4523L11.0835 18.2909C9.5766 14.7452 14.5406 9.42344 20.5968 5.51683C20.5968 5.51683 23.9969 3.31342 27.6629 3.04749C30.6767 2.82905 34.3237 3.29126 37.1476 6.68184C38.5026 8.30591 39.4967 10.2719 39.7943 12.0796C41.2284 20.7792 34.9094 29.2098 28.3562 35.3483C27.4476 36.1967 25.947 37.368 24.171 37.6435C22.8223 37.8556 21.4484 37.2256 20.4543 36.2885C20.4543 36.2885 18.061 34.0566 17.8489 32.0653C17.8489 32.0621 17.966 32.7934 18.5232 33.1607Z" fill="url(#paint0_linear_37343_5156)"/>
<path opacity="0.65" d="M30.8002 9.31264C24.3198 3.31026 15.769 6.21331 15.769 6.21331C13.0749 6.87496 10.539 8.37239 8.91499 10.6233C8.00323 11.8864 7.24344 13.2351 6.23988 14.4476C5.17933 15.7297 3.0804 17.0435 2.04201 18.3447C0.180519 20.6811 -0.392493 23.5398 0.259664 26.4587C0.516094 27.5984 1.08594 28.6431 1.76026 29.596C3.88135 32.594 7.13897 34.8069 10.748 35.4749C14.357 36.1429 17.4975 35.4717 20.2802 33.0784C20.3942 32.9897 20.5082 32.8821 20.6221 32.7618C21.2616 32.1793 21.7144 31.2897 22.0436 30.6122C22.1227 30.4507 22.1956 30.2861 22.2715 30.1247C22.3064 30.0519 22.3507 29.9854 22.3728 29.9157C22.376 29.9062 22.3792 29.8967 22.3823 29.8872C23.731 26.9842 24.8232 23.9608 25.6305 20.8647C25.7254 20.6399 25.7603 20.3771 25.9502 20.2252C26.042 20.1524 26.1497 20.108 26.2668 20.0827C26.3238 20.0701 26.3839 20.0606 26.4441 20.0542C26.5042 20.0479 26.5644 20.0447 26.6214 20.0384C28.695 19.8959 32.2027 19.9909 33.2886 17.7717C33.3709 17.6039 33.4278 17.4298 33.4658 17.2525C34.3364 14.2925 32.6459 11.0253 30.8002 9.31264Z" fill="url(#paint1_linear_37343_5156)"/>
<path opacity="0.65" d="M17.8015 30.8877C18.3017 27.5667 19.8434 24.4136 19.8941 21.0547C19.8972 20.8425 19.8751 20.5924 19.6978 20.4753C19.5901 20.4057 19.454 20.4025 19.3242 20.4025C16.8137 20.3993 14.4584 21.4282 12.1917 19.7124C11.644 19.2976 11.1501 18.731 11.0583 18.0503C11.0583 18.0471 11.0583 18.0408 11.0551 18.0376C10.9728 17.3791 11.2862 16.7207 11.7421 16.2395C12.8945 15.0238 14.8414 14.9636 16.4212 14.761C18.3302 14.5173 20.2581 14.4824 22.1766 14.3716C23.9178 14.2703 25.659 14.1722 27.4002 14.0709C29.0179 13.9791 31.4176 13.5232 32.6934 14.7579C33.1841 15.2327 33.4817 15.9039 33.5197 16.5814L33.5989 16.5782C33.5989 16.5782 33.9313 14.5774 31.9495 12.5766C31.9495 12.5766 30.3381 10.7689 26.3365 10.6296C22.3349 10.4872 19.9257 8.99925 19.1469 8.60985C18.3681 8.22046 11.4983 3.43692 6.68314 10.3416C1.86795 17.2462 8.17107 24.3313 8.17107 24.3313C8.17107 24.3313 11.0805 28.5956 18.5739 33.2177C18.5739 33.2177 17.545 32.5909 17.8015 30.8877Z" fill="url(#paint2_linear_37343_5156)"/>
<path opacity="0.5" d="M35.0486 11.5445C31.1705 9.36645 27.4 14.0677 27.4 14.0677C29.0178 13.9759 31.4175 13.52 32.6933 14.7547C33.4816 15.5176 33.7728 16.7871 33.2916 17.7717C32.2057 19.9909 28.6949 19.8959 26.6244 20.0384C26.3902 20.0542 26.1369 20.0732 25.9533 20.222C25.7633 20.374 25.6937 20.6272 25.6335 20.8615C25.5291 21.2604 25.4214 21.6561 25.3074 22.0518C25.2695 22.1816 25.2315 22.3114 25.1935 22.4412C25.1143 22.7072 25.0384 22.9731 24.956 23.2359C24.9086 23.3878 24.8579 23.5398 24.8104 23.6917C24.7344 23.9323 24.6553 24.1729 24.5761 24.4104C24.5223 24.5687 24.4685 24.7301 24.4115 24.8884C24.3324 25.1195 24.2501 25.3506 24.1646 25.5817C24.1076 25.7432 24.0475 25.9015 23.9873 26.0629C23.9018 26.294 23.8132 26.522 23.7245 26.7499C23.6644 26.9082 23.6011 27.0633 23.5409 27.2216C23.446 27.4559 23.351 27.6902 23.2528 27.9213C23.1927 28.0701 23.1294 28.2157 23.0692 28.3645C22.9616 28.6177 22.8476 28.871 22.7368 29.1243C22.683 29.2477 22.6292 29.3712 22.5722 29.4947C22.5627 29.5168 22.55 29.5422 22.5405 29.5643L22.5437 29.5675C24.8009 25.7305 26.0292 24.6478 29.5306 23.3941C33.9216 21.8176 36.1725 18.4017 36.1725 18.4017C36.1725 18.4017 38.9268 13.7226 35.0486 11.5445Z" fill="url(#paint3_linear_37343_5156)"/>
<path opacity="0.6" d="M11.0582 18.0313C10.9759 17.3728 11.2893 16.7143 11.7452 16.2331C12.8975 15.0174 14.8445 14.9573 16.4242 14.7547C18.3332 14.5109 20.2612 14.4761 22.1797 14.3653C23.9209 14.264 25.6621 14.1658 27.4033 14.0645C29.021 13.9727 31.4207 13.5168 32.6965 14.7515C33.4848 15.5145 33.776 16.7839 33.2948 17.7685C32.209 19.9877 28.6981 19.8928 26.6276 20.0352C26.3934 20.0511 26.1401 20.0701 25.9565 20.2189C25.7665 20.3708 25.6969 20.6241 25.6367 20.8583C24.763 24.2141 23.56 27.4844 22.0499 30.6059C21.537 31.6696 20.7139 33.2525 19.3526 33.3601C18.0261 33.4646 17.6589 31.9165 17.8077 30.8845C18.2889 27.5604 19.8496 24.4104 19.9003 21.0515C19.9035 20.8394 19.8813 20.5893 19.704 20.4721C19.5964 20.4025 19.4602 20.3993 19.3304 20.3993C16.82 20.3961 14.4646 21.425 12.1979 19.7092C11.6502 19.2944 11.1563 18.7278 11.0645 18.0471C11.0582 18.0408 11.0582 18.0376 11.0582 18.0313Z" fill="black"/>
</g>
<defs>
<linearGradient id="paint0_linear_37343_5156" x1="10.8156" y1="20.3406" x2="40.0004" y2="20.3406" gradientUnits="userSpaceOnUse">
<stop offset="0.00114746" stop-color="#FF7400"/>
<stop offset="1" stop-color="#FFFF00"/>
</linearGradient>
<linearGradient id="paint1_linear_37343_5156" x1="26.0339" y1="8.82105" x2="4.34466" y2="33.5227" gradientUnits="userSpaceOnUse">
<stop offset="0.0619" stop-color="#FF85AF"/>
<stop offset="0.9985" stop-color="#EF27A2"/>
</linearGradient>
<linearGradient id="paint2_linear_37343_5156" x1="4.07259" y1="14.9319" x2="30.5816" y2="24.5716" gradientUnits="userSpaceOnUse">
<stop offset="0.0387" stop-color="#FF0059"/>
<stop offset="0.9973" stop-color="#FFF100"/>
</linearGradient>
<linearGradient id="paint3_linear_37343_5156" x1="39.2053" y1="8.15227" x2="19.7921" y2="29.4398" gradientUnits="userSpaceOnUse">
<stop offset="0.000376879" stop-color="#8600FF"/>
<stop offset="1" stop-color="#FF23D8"/>
</linearGradient>
<clipPath id="clip0_37343_5156">
<rect width="40" height="34.6814" fill="white" transform="translate(0 3)"/>
</clipPath>
</defs>
</svg>
