<svg width="64" height="56" viewBox="0 0 64 56" fill="none" xmlns="http://www.w3.org/2000/svg">
<g clip-path="url(#clip0_1_537)">
<path opacity="0.45" d="M28.8608 47.3913C29.2658 48.1508 29.9241 48.6571 30.9367 48.6065C33.1139 48.4546 34.4304 45.923 35.2405 44.2015C37.6709 39.1889 39.595 33.9232 41.0127 28.5563C41.1139 28.2018 41.2152 27.7968 41.519 27.5436C41.8228 27.2905 42.2279 27.2905 42.5823 27.2398C45.8734 27.0373 51.4937 27.1386 53.2658 23.5943C54.0253 22.0248 53.5696 19.9995 52.3038 18.7843C50.2785 16.8097 46.4304 17.5185 43.8481 17.6704C41.0633 17.8223 38.2785 17.9742 35.4937 18.1261C32.4051 18.278 29.3671 18.3793 26.2785 18.7337C23.7469 19.0375 20.6582 19.1387 18.7848 21.1134C18.076 21.8729 17.5696 22.9361 17.6709 23.9994C15.2405 18.3286 23.2405 10.2275 32.9114 3.99982C32.9114 3.99982 38.3291 0.455592 44.2026 0.0505375C49.0127 -0.303885 54.8355 0.455592 59.3924 5.8732C61.5696 8.45542 63.1393 11.5946 63.6456 14.4806C65.9241 28.4044 55.8481 41.8724 45.3671 51.695C43.8988 53.0621 41.519 54.9355 38.6836 55.3911C36.5064 55.7456 34.3291 54.7329 32.7595 53.214C32.7089 53.214 30.3798 50.8343 28.8608 47.3913Z" fill="url(#paint0_linear_1_537)"/>
<g opacity="0.45">
<path opacity="0.45" d="M49.2659 10.0756C52.4051 12.9616 55.2406 18.683 53.2659 23.5943C51.7975 27.2398 45.9241 26.9866 42.5824 27.2398C42.2279 27.2904 41.8229 27.2904 41.5191 27.5436C41.2153 27.7967 41.114 28.2018 41.0127 28.5562C39.595 33.9232 38.1773 38.0243 35.7975 43.0369C34.9874 44.7584 33.7722 47.0874 32.4558 48.1001C28.0001 51.9481 22.9874 53.0114 17.2153 51.9481C11.4431 50.8848 6.22792 47.3406 2.83552 42.5306C1.77223 41.0116 0.860834 39.3408 0.45577 37.518C-0.607521 32.8599 0.303872 28.303 3.29121 24.5563C4.9621 22.4804 8.30387 20.3538 10.0254 18.3286C11.6456 16.4046 12.8608 14.2274 14.2786 12.2021C16.8608 8.60725 20.9115 6.22755 25.2153 5.16428C25.2153 5.16428 38.8862 0.506154 49.2659 10.0756Z" fill="url(#paint1_linear_1_537)"/>
</g>
<path d="M17.671 24.0503C17.5191 22.987 18.0254 21.9237 18.7849 21.1642C20.6077 19.2402 23.7469 19.139 26.2786 18.7845C29.3166 18.3795 32.4052 18.3289 35.4938 18.177C38.2786 18.0251 41.0634 17.8732 43.8482 17.7213C46.4305 17.5694 50.2786 16.8605 52.3039 18.8352C53.5697 20.0503 54.0254 22.0756 53.2659 23.6452C51.5444 27.1894 45.9242 27.0375 42.5824 27.2907C42.228 27.3413 41.8229 27.3413 41.5191 27.5945C41.2153 27.8476 41.114 28.2527 41.0128 28.6071C39.595 33.9235 37.671 39.1892 35.2406 44.1511C34.4305 45.8726 33.114 48.4042 30.9368 48.5561C28.8102 48.708 28.2026 46.227 28.4558 44.6068C29.2153 39.2904 31.7469 34.2273 31.7976 28.8603C31.7976 28.5059 31.7469 28.1008 31.4938 27.9489C31.3419 27.8476 31.0887 27.8476 30.8862 27.8476C26.8862 27.8476 23.0887 29.4679 19.4938 26.7337C18.633 26.0755 17.8229 25.1642 17.671 24.0503Z" fill="white"/>
<path opacity="0.45" d="M28.4558 44.6066C29.2153 39.2903 31.7469 34.2271 31.7976 28.8601C31.7976 28.5057 31.7469 28.1007 31.4938 27.9488C31.3419 27.8475 31.0887 27.8475 30.8862 27.8475C26.8862 27.8475 23.0887 29.4677 19.4938 26.7336C18.633 26.0754 17.8229 25.164 17.671 24.0501C17.5191 22.9869 18.0254 21.9236 18.7849 21.1641C20.6077 19.2401 23.7469 19.1388 26.2786 18.7844C29.3165 18.3794 32.4051 18.3287 35.4938 18.1768C38.2786 18.0249 41.0634 17.873 43.8482 17.7211C46.4305 17.5692 50.2786 16.8604 52.3039 18.835C53.0634 19.5945 53.5697 20.6578 53.6203 21.7717H53.7216C53.7216 21.7717 54.2279 18.5819 51.0887 15.3921C51.0887 15.3921 48.5064 12.5061 42.1267 12.2529C35.7469 12.0504 31.8988 9.67068 30.633 9.01247C29.3672 8.35425 18.3798 0.708848 10.6836 11.7466C2.98743 22.7843 13.0634 34.1259 13.0634 34.1259C13.0634 34.1259 17.4178 41.113 29.4178 48.5053C29.4178 48.4547 28.2533 46.2269 28.4558 44.6066Z" fill="url(#paint2_linear_1_537)"/>
<path opacity="0.45" d="M36.0508 42.4802C38.0761 37.974 39.747 33.3158 41.0128 28.5564C41.1141 28.202 41.2153 27.797 41.5191 27.5438C41.8229 27.2906 42.228 27.2906 42.5824 27.24C45.8736 27.0375 51.4938 27.1387 53.266 23.5945C54.0255 22.0249 53.5698 19.9997 52.304 18.7845C50.2786 16.8098 46.4305 17.5187 43.8483 17.6706C43.8483 17.6706 49.8736 10.1771 56.1014 13.62C62.3293 17.063 57.8736 24.5565 57.8736 24.5565C57.8736 24.5565 54.2786 30.0248 47.2407 32.5563C41.6204 34.6323 39.6457 36.3537 36.0508 42.4802Z" fill="url(#paint3_linear_1_537)"/>
</g>
<defs>
<linearGradient id="paint0_linear_1_537" x1="17.2508" y1="27.7332" x2="63.9753" y2="27.7332" gradientUnits="userSpaceOnUse">
<stop offset="0.00114733" stop-color="#FF8300"/>
<stop offset="1" stop-color="#F9EC31"/>
</linearGradient>
<linearGradient id="paint1_linear_1_537" x1="42.2882" y1="11.2124" x2="6.09491" y2="47.1515" gradientUnits="userSpaceOnUse">
<stop offset="2.44409e-07" stop-color="#FF85AF"/>
<stop offset="1" stop-color="#EF39A2"/>
</linearGradient>
<linearGradient id="paint2_linear_1_537" x1="7.78727" y1="27.1428" x2="53.7681" y2="27.1428" gradientUnits="userSpaceOnUse">
<stop offset="3.6901e-07" stop-color="#EC0059"/>
<stop offset="0.9943" stop-color="#FFA600"/>
</linearGradient>
<linearGradient id="paint3_linear_1_537" x1="35.7618" y1="33.0064" x2="56.9171" y2="16.9483" gradientUnits="userSpaceOnUse">
<stop stop-color="#9056FF"/>
<stop offset="0.9963" stop-color="#FF4CD8"/>
</linearGradient>
<clipPath id="clip0_1_537">
<rect width="64" height="55.4419" fill="white"/>
</clipPath>
</defs>
</svg>
