<svg width="16" height="16" viewBox="0 0 16 16" fill="none" xmlns="http://www.w3.org/2000/svg">
<circle cx="8" cy="8" r="8" fill="#2E96FF"/>
<path fill-rule="evenodd" clip-rule="evenodd" d="M8 5C8.55228 5 9 4.55228 9 4C9 3.44772 8.55228 3 8 3C7.44772 3 7 3.44772 7 4C7 4.55228 7.44772 5 8 5ZM9 6.5C9 6.51609 8.99924 6.53201 8.99775 6.54771C8.99924 6.56494 9 6.58238 9 6.6V12H10.5C10.7761 12 11 12.2239 11 12.5C11 12.7761 10.7761 13 10.5 13H8.25H6C5.72386 13 5.5 12.7761 5.5 12.5C5.5 12.2239 5.72386 12 6 12H7.5V7H6.5C6.22386 7 6 6.77614 6 6.5C6 6.22386 6.22386 6 6.5 6H8.4H8.5C8.77614 6 9 6.22386 9 6.5Z" fill="white"/>
</svg>
