<svg width="16" height="16" viewBox="0 0 16 16" fill="none" xmlns="http://www.w3.org/2000/svg">
<path fill-rule="evenodd" clip-rule="evenodd" d="M4.66782 12.3737C4.87421 12.5572 5.19025 12.5386 5.3737 12.3322C5.55716 12.1258 5.53857 11.8098 5.33218 11.6263L1.8151 8.50001H15.5C15.7761 8.50001 16 8.27615 16 8.00001C16 7.72386 15.7761 7.50001 15.5 7.50001H1.8151L5.33218 4.37371C5.53857 4.19025 5.55716 3.87421 5.3737 3.66782C5.19025 3.46143 4.87421 3.44284 4.66782 3.6263L0.167818 7.6263C0.0610737 7.72118 0 7.85719 0 8C0 8.14282 0.0610736 8.27883 0.167818 8.37371L4.66782 12.3737Z" fill="#222222"/>
</svg>
