<svg width="16" height="16" viewBox="0 0 16 16" fill="none" xmlns="http://www.w3.org/2000/svg">
<g clip-path="url(#clip0_28237_28728)">
<path fill-rule="evenodd" clip-rule="evenodd" d="M12.3737 11.3322C12.5572 11.1258 12.5386 10.8098 12.3322 10.6263C12.1258 10.4428 11.8098 10.4614 11.6263 10.6678L8.50001 14.1849L8.50001 0.5C8.50001 0.223858 8.27615 -2.08772e-07 8.00001 -1.96702e-07C7.72386 -1.84631e-07 7.50001 0.223858 7.50001 0.5L7.50001 14.1849L4.37371 10.6678C4.19025 10.4614 3.87421 10.4428 3.66782 10.6263C3.46143 10.8098 3.44284 11.1258 3.6263 11.3322L7.6263 15.8322C7.72118 15.9389 7.85719 16 8 16C8.14282 16 8.27883 15.9389 8.37371 15.8322L12.3737 11.3322Z" fill="#222222"/>
</g>
<defs>
<clipPath id="clip0_28237_28728">
<rect width="16" height="16" fill="white"/>
</clipPath>
</defs>
</svg>
