<svg width="16" height="16" viewBox="0 0 16 16" fill="none" xmlns="http://www.w3.org/2000/svg">
<path fill-rule="evenodd" clip-rule="evenodd" d="M11.3322 3.62629C11.1258 3.44283 10.8098 3.46142 10.6263 3.66781C10.4428 3.8742 10.4614 4.19024 10.6678 4.3737L14.1849 7.49999L0.5 7.49999C0.223858 7.49999 0 7.72385 0 7.99999C0 8.27614 0.223858 8.49999 0.5 8.49999L14.1849 8.49999L10.6678 11.6263C10.4614 11.8097 10.4428 12.1258 10.6263 12.3322C10.8098 12.5386 11.1258 12.5572 11.3322 12.3737L15.8322 8.3737C15.9389 8.27882 16 8.14281 16 8C16 7.85718 15.9389 7.72117 15.8322 7.62629L11.3322 3.62629Z" fill="#222222"/>
</svg>
