<svg width="16" height="16" viewBox="0 0 16 16" fill="none" xmlns="http://www.w3.org/2000/svg">
<g clip-path="url(#clip0_28237_28723)">
<path fill-rule="evenodd" clip-rule="evenodd" d="M3.62629 4.66782C3.44283 4.87421 3.46142 5.19024 3.66781 5.3737C3.8742 5.55716 4.19024 5.53857 4.3737 5.33218L7.5 1.8151L7.49999 15.5C7.49999 15.7761 7.72385 16 7.99999 16C8.27614 16 8.49999 15.7761 8.49999 15.5L8.5 1.8151L11.6263 5.33218C11.8097 5.53857 12.1258 5.55716 12.3322 5.3737C12.5386 5.19025 12.5572 4.87421 12.3737 4.66782L8.3737 0.167818C8.27882 0.0610735 8.14281 -1.90459e-07 8 -1.96701e-07C7.85718 -2.02944e-07 7.72117 0.0610734 7.62629 0.167818L3.62629 4.66782Z" fill="#222222"/>
</g>
<defs>
<clipPath id="clip0_28237_28723">
<rect width="16" height="16" fill="white"/>
</clipPath>
</defs>
</svg>
