<svg width="16" height="16" viewBox="0 0 16 16" fill="none" xmlns="http://www.w3.org/2000/svg">
<g clip-path="url(#clip0_28237_28790)">
<path fill-rule="evenodd" clip-rule="evenodd" d="M8 16C12.4183 16 16 12.4183 16 8C16 3.58172 12.4183 0 8 0C3.58172 0 0 3.58172 0 8C0 12.4183 3.58172 16 8 16ZM15 8C15 11.866 11.866 15 8 15C6.24696 15 4.64443 14.3556 3.41637 13.2907L13.2907 3.41637C14.3556 4.64443 15 6.24696 15 8ZM12.5836 2.70926C11.3556 1.64441 9.75304 1 8 1C4.13401 1 1 4.13401 1 8C1 9.75304 1.64441 11.3556 2.70926 12.5836L12.5836 2.70926Z" fill="#222222"/>
</g>
<defs>
<clipPath id="clip0_28237_28790">
<rect width="16" height="16" fill="white"/>
</clipPath>
</defs>
</svg>
