<svg width="16" height="16" viewBox="0 0 16 16" fill="none" xmlns="http://www.w3.org/2000/svg">
<path fill-rule="evenodd" clip-rule="evenodd" d="M5.5 2.50023C5.5 1.11959 6.61921 0 8 0C9.38071 0 10.5 1.11929 10.5 2.5V3.5C10.5 3.58021 10.4811 3.65601 10.4475 3.72319C11.2023 4.21328 11.8009 4.92345 12.1524 5.76277C13.175 5.71505 14 4.85796 14 3.7943C14 3.51815 14.2239 3.2943 14.5 3.2943C14.7761 3.2943 15 3.51815 15 3.7943C15 5.3014 13.8869 6.55515 12.4363 6.74109C12.4782 6.98781 12.5 7.24135 12.5 7.5V8.64687H14.5C14.7761 8.64687 15 8.87072 15 9.14687C15 9.42301 14.7761 9.64687 14.5 9.64687H12.5V11.5C12.5 11.5206 12.4999 11.5412 12.4996 11.5617C13.9191 11.7755 15 13.0146 15 14.4997C15 14.7758 14.7761 14.9997 14.5 14.9997C14.2239 14.9997 14 14.7758 14 14.4997C14 13.5146 13.2925 12.7068 12.3757 12.5548C11.901 14.5312 10.122 16 8 16C5.74791 16 3.88223 14.3456 3.55194 12.1859C2.64138 12.5593 2 13.4551 2 14.5C2 14.7761 1.77614 15 1.5 15C1.22386 15 1 14.7761 1 14.5C1 12.9142 2.0542 11.5755 3.5 11.1451V9.5H1.5C1.22386 9.5 1 9.27614 1 9C1 8.72386 1.22386 8.5 1.5 8.5H3.5V7.5C3.5 7.15631 3.53853 6.82161 3.61151 6.5H3.47326C2.10099 6.5 1 5.37435 1 4C1 3.72386 1.22386 3.5 1.5 3.5C1.77614 3.5 2 3.72386 2 4C2 4.83479 2.66592 5.5 3.47326 5.5H3.96657L3.96776 5.5C4.32796 4.77519 4.87784 4.16127 5.55245 3.72319C5.51889 3.65601 5.5 3.58021 5.5 3.5V2.50023ZM9.5 2.5V3.25606C9.03083 3.09023 8.52595 3 8 3C7.47405 3 6.96917 3.09023 6.5 3.25606V2.50023C6.5 1.67173 7.17165 1 8 1C8.82843 1 9.5 1.67157 9.5 2.5ZM8 4C6.067 4 4.5 5.567 4.5 7.5V11.5C4.5 13.433 6.067 15 8 15C9.933 15 11.5 13.433 11.5 11.5V7.5C11.5 5.567 9.933 4 8 4ZM8.50049 7.91159C8.50049 7.63545 8.27663 7.41159 8.00049 7.41159C7.72435 7.41159 7.50049 7.63545 7.50049 7.91159V10.3822C7.50049 10.6583 7.72435 10.8822 8.00049 10.8822C8.27663 10.8822 8.50049 10.6583 8.50049 10.3822V7.91159Z" fill="#222222"/>
</svg>
