<svg width="16" height="16" viewBox="0 0 16 16" fill="none" xmlns="http://www.w3.org/2000/svg">
<g clip-path="url(#clip0_28237_28846)">
<path fill-rule="evenodd" clip-rule="evenodd" d="M0 16V8C0 3.58172 3.58172 0 8 0C12.4183 0 16 3.58172 16 8C16 12.4183 12.4183 16 8 16H0ZM15 8C15 11.866 11.866 15 8 15H1V8C1 4.13401 4.13401 1 8 1C11.866 1 15 4.13401 15 8ZM3.5 7C3.5 6.72386 3.72386 6.5 4 6.5H12C12.2761 6.5 12.5 6.72386 12.5 7C12.5 7.27614 12.2761 7.5 12 7.5H4C3.72386 7.5 3.5 7.27614 3.5 7ZM4 9.5C3.72386 9.5 3.5 9.72386 3.5 10C3.5 10.2761 3.72386 10.5 4 10.5H9.71429C9.99043 10.5 10.2143 10.2761 10.2143 10C10.2143 9.72386 9.99043 9.5 9.71429 9.5H4Z" fill="#222222"/>
</g>
<defs>
<clipPath id="clip0_28237_28846">
<rect width="16" height="16" fill="white"/>
</clipPath>
</defs>
</svg>
