<svg width="16" height="16" viewBox="0 0 16 16" fill="none" xmlns="http://www.w3.org/2000/svg">
<path fill-rule="evenodd" clip-rule="evenodd" d="M6 0H13C14.1046 0 15 0.895431 15 2V11C15 12.1046 14.1046 13 13 13H12V14C12 15.1046 11.1046 16 10 16H3C1.89543 16 1 15.1046 1 14V5C1 3.89543 1.89543 3 3 3H4V2C4 0.89543 4.89543 0 6 0ZM5 3H10C11.1046 3 12 3.89543 12 5V12H13C13.5523 12 14 11.5523 14 11V2C14 1.44772 13.5523 1 13 1H6C5.44772 1 5 1.44771 5 2V3ZM2 5C2 4.44771 2.44772 4 3 4H10C10.5523 4 11 4.44772 11 5V14C11 14.5523 10.5523 15 10 15H3C2.44772 15 2 14.5523 2 14V5Z" fill="#222222"/>
</svg>
