<svg width="16" height="16" viewBox="0 0 16 16" fill="none" xmlns="http://www.w3.org/2000/svg">
<path d="M7 5.5C7 5.22386 6.77614 5 6.5 5C6.22386 5 6 5.22386 6 5.5V12.5C6 12.7761 6.22386 13 6.5 13C6.77614 13 7 12.7761 7 12.5V5.5Z" fill="#222222"/>
<path d="M9.5 5C9.77614 5 10 5.22386 10 5.5V12.5C10 12.7761 9.77614 13 9.5 13C9.22386 13 9 12.7761 9 12.5V5.5C9 5.22386 9.22386 5 9.5 5Z" fill="#222222"/>
<path fill-rule="evenodd" clip-rule="evenodd" d="M1.5 2H5.55001C5.78164 0.85888 6.79052 0 8 0C9.20948 0 10.2184 0.85888 10.45 2H14.5C14.7761 2 15 2.22386 15 2.5C15 2.77614 14.7761 3 14.5 3H13.5V13.5C13.5 14.8807 12.3807 16 11 16H5C3.61929 16 2.5 14.8807 2.5 13.5V3H1.5C1.22386 3 1 2.77614 1 2.5C1 2.22386 1.22386 2 1.5 2ZM8 1C7.34689 1 6.79127 1.4174 6.58535 2H9.41465C9.20873 1.4174 8.65311 1 8 1ZM3.5 3V13.5C3.5 14.3284 4.17157 15 5 15H11C11.8284 15 12.5 14.3284 12.5 13.5V3H3.5Z" fill="#222222"/>
</svg>
