<svg width="16" height="16" viewBox="0 0 16 16" fill="none" xmlns="http://www.w3.org/2000/svg">
<g clip-path="url(#clip0_28237_28668)">
<path d="M13.3536 10.3536C13.5488 10.1583 13.5488 9.84171 13.3536 9.64645C13.1583 9.45118 12.8417 9.45118 12.6464 9.64645L8.50002 13.7929L8.50022 3.00001C8.50022 2.72387 8.27637 2.5 8.00023 2.5C7.72409 2.49999 7.50022 2.72385 7.50022 2.99999L7.50002 13.7929L3.35355 9.64645C3.15829 9.45118 2.84171 9.45118 2.64645 9.64645C2.45118 9.84171 2.45118 10.1583 2.64645 10.3536L7.64645 15.3536C7.74021 15.4473 7.86739 15.5 8 15.5C8.13261 15.5 8.25979 15.4473 8.35355 15.3536L13.3536 10.3536Z" fill="#222222"/>
<path d="M2.5 0C2.22386 -2.41411e-08 2 0.223858 2 0.5C2 0.776142 2.22386 1 2.5 1L13.5 1C13.7761 1 14 0.776144 14 0.500002C14 0.223859 13.7761 1.93947e-06 13.5 1.91532e-06L2.5 0Z" fill="#222222"/>
</g>
<defs>
<clipPath id="clip0_28237_28668">
<rect width="16" height="16" fill="white"/>
</clipPath>
</defs>
</svg>
