<svg width="16" height="16" viewBox="0 0 16 16" fill="none" xmlns="http://www.w3.org/2000/svg">
<path fill-rule="evenodd" clip-rule="evenodd" d="M0 3C0 2.44772 0.447715 2 1 2H15C15.5523 2 16 2.44772 16 3V11C16 12.6569 14.6569 14 13 14H3C1.34315 14 0 12.6569 0 11V3ZM14.2317 3H1.7683L7.6746 8.06255C7.86185 8.22305 8.13815 8.22305 8.3254 8.06255L14.2317 3ZM1 3.65854V11C1 12.1046 1.89543 13 3 13H13C14.1046 13 15 12.1046 15 11V3.65854L8.97619 8.82181C8.41445 9.30329 7.58555 9.30329 7.02381 8.82181L1 3.65854Z" fill="#222222"/>
</svg>
