<svg width="16" height="16" viewBox="0 0 16 16" fill="none" xmlns="http://www.w3.org/2000/svg">
<g clip-path="url(#clip0_28237_28738)">
<path fill-rule="evenodd" clip-rule="evenodd" d="M2.49281 8.8003L2.49282 8.03417C2.49205 6.46027 3.09169 4.88752 4.29205 3.68717C6.69102 1.2882 10.5805 1.2882 12.9795 3.68717C15.3785 6.08614 15.3785 9.97564 12.9795 12.3746C11.78 13.5741 10.2089 14.1737 8.63618 14.1738C8.36003 14.1739 8.13619 14.3977 8.13621 14.6739C8.13623 14.95 8.3601 15.1739 8.63624 15.1738C10.4634 15.1737 12.2921 14.4763 13.6866 13.0817C16.4761 10.2922 16.4761 5.76956 13.6866 2.98006C10.8971 0.190565 6.37444 0.190566 3.58494 2.98006C2.18946 4.37555 1.49199 6.20581 1.49282 8.03416L1.49281 8.78576L1.0203 8.31325C0.82504 8.11798 0.508457 8.11798 0.313195 8.31325C0.117933 8.50851 0.117932 8.82509 0.313195 9.02035L1.64653 10.3537C1.74029 10.4475 1.86747 10.5001 2.00008 10.5001C2.13269 10.5001 2.25986 10.4475 2.35363 10.3537L3.68697 9.02036C3.88223 8.82509 3.88223 8.50851 3.68697 8.31325C3.4917 8.11799 3.17512 8.11799 2.97986 8.31325L2.49281 8.8003ZM7.5 4C7.5 3.72386 7.72386 3.5 8 3.5C8.27614 3.5 8.5 3.72386 8.5 4V8.5H13C13.2761 8.5 13.5 8.72386 13.5 9C13.5 9.27614 13.2761 9.5 13 9.5H8C7.72386 9.5 7.5 9.27614 7.5 9V4Z" fill="#222222"/>
</g>
<defs>
<clipPath id="clip0_28237_28738">
<rect width="16" height="16" fill="white"/>
</clipPath>
</defs>
</svg>
