<svg width="16" height="16" viewBox="0 0 16 16" fill="none" xmlns="http://www.w3.org/2000/svg">
<path d="M3.5 0C2.11929 0 1 1.11929 1 2.5V13.5C1 14.8807 2.11929 16 3.5 16H9.5C10.8807 16 12 14.8807 12 13.5V12C12 11.7239 11.7761 11.5 11.5 11.5C11.2239 11.5 11 11.7239 11 12V13.5C11 14.3284 10.3284 15 9.5 15H3.5C2.67157 15 2 14.3284 2 13.5V2.5C2 1.67157 2.67157 1 3.5 1H9.5C10.3284 1 11 1.67157 11 2.5V4C11 4.27614 11.2239 4.5 11.5 4.5C11.7761 4.5 12 4.27614 12 4V2.5C12 1.11929 10.8807 0 9.5 0H3.5Z" fill="#222222"/>
<path d="M13.3123 5.60957C13.0967 5.43706 12.7821 5.47202 12.6096 5.68765C12.4371 5.90328 12.472 6.21793 12.6877 6.39043L14.0746 7.5H6.5C6.22386 7.5 6 7.72386 6 8C6 8.27614 6.22386 8.5 6.5 8.5H14.0746L12.6877 9.60957C12.472 9.78207 12.4371 10.0967 12.6096 10.3123C12.7821 10.528 13.0967 10.5629 13.3123 10.3904L15.8121 8.39066L15.5 8L15.8123 7.60955L13.3123 5.60957Z" fill="#222222"/>
<path d="M15.5 8L15.8123 7.60955C15.9309 7.70444 16 7.84811 16 8C16 8.15189 15.9307 8.29577 15.8121 8.39066L15.5 8Z" fill="#222222"/>
</svg>
