<svg width="16" height="16" viewBox="0 0 16 16" fill="none" xmlns="http://www.w3.org/2000/svg">
<g clip-path="url(#clip0_28237_28604)">
<path fill-rule="evenodd" clip-rule="evenodd" d="M7.99967 11.5C9.93266 11.5 11.4997 9.933 11.4997 8C11.4997 6.067 9.93266 4.5 7.99967 4.5C6.06667 4.5 4.49967 6.067 4.49967 8C4.49967 9.933 6.06667 11.5 7.99967 11.5ZM10.4997 8C10.4997 9.38071 9.38038 10.5 7.99967 10.5C6.61896 10.5 5.49967 9.38071 5.49967 8C5.49967 6.61929 6.61896 5.5 7.99967 5.5C9.38038 5.5 10.4997 6.61929 10.4997 8Z" fill="#222222"/>
<path fill-rule="evenodd" clip-rule="evenodd" d="M1.51259 3.23582L0.630183 4.76419C0.302146 5.33237 0.38142 6.04781 0.825891 6.53039L1.53677 7.30222C1.51223 7.53172 1.49967 7.76454 1.49967 8C1.49967 8.23546 1.51223 8.46829 1.53677 8.69779L0.825891 9.46962C0.38142 9.9522 0.302145 10.6676 0.630183 11.2358L1.51259 12.7642C1.84063 13.3324 2.49985 13.6214 3.14001 13.4778L4.16395 13.2481C4.53826 13.522 4.94325 13.7571 5.37295 13.9471L5.68554 14.9474C5.88123 15.5736 6.46118 16 7.11726 16H8.88207C9.53815 16 10.1181 15.5736 10.3138 14.9474L10.6264 13.9471C11.0561 13.7571 11.461 13.5221 11.8353 13.2481L12.8591 13.4778C13.4992 13.6214 14.1585 13.3324 14.4865 12.7642L15.3689 11.2358C15.6969 10.6676 15.6177 9.9522 15.1732 9.46962L14.4625 8.69803C14.4871 8.46845 14.4997 8.23554 14.4997 8C14.4997 7.76446 14.4871 7.53156 14.4625 7.30198L15.1732 6.53039C15.6177 6.04781 15.6969 5.33237 15.3689 4.76419L14.4865 3.23582C14.1585 2.66764 13.4992 2.37858 12.8591 2.52221L11.8353 2.7519C11.461 2.47795 11.0561 2.24289 10.6264 2.05287L10.3138 1.05259C10.1181 0.426375 9.53815 0 8.88207 0H7.11726C6.46119 0 5.88123 0.426374 5.68554 1.05259L5.37295 2.05287C4.94324 2.2429 4.53826 2.47797 4.16394 2.75195L3.14002 2.52221C2.49985 2.37858 1.84063 2.66764 1.51259 3.23582ZM13.6205 3.73582L14.5029 5.26419C14.6122 5.45358 14.5858 5.69206 14.4376 5.85292L13.4043 6.97487C13.4669 7.307 13.4997 7.64967 13.4997 8C13.4997 8.35033 13.4669 8.69301 13.4043 9.02514L14.4376 10.1471C14.5858 10.3079 14.6122 10.5464 14.5029 10.7358L13.6205 12.2642C13.5111 12.4536 13.2914 12.5499 13.078 12.5021L11.5885 12.1679C11.0718 12.6132 10.4714 12.964 9.81415 13.1937L9.35931 14.6491C9.29408 14.8579 9.10076 15 8.88207 15H7.11726C6.89857 15 6.70525 14.8579 6.64002 14.6491L6.18519 13.1937C5.52787 12.964 4.92746 12.6132 4.41076 12.1678L2.92109 12.5021C2.7077 12.5499 2.48796 12.4536 2.37861 12.2642L1.49621 10.7358C1.38686 10.5464 1.41329 10.3079 1.56144 10.1471L2.59499 9.02492C2.53241 8.69286 2.49967 8.35025 2.49967 8C2.49967 7.64975 2.53241 7.30715 2.59499 6.97509L1.56144 5.85292C1.41329 5.69206 1.38686 5.45358 1.49621 5.26419L2.37861 3.73582C2.48796 3.54643 2.7077 3.45007 2.92109 3.49795L4.41075 3.83218C4.92745 3.38685 5.52787 3.03596 6.18519 2.80634L6.64002 1.35086C6.70525 1.14212 6.89857 1 7.11726 1H8.88207C9.10076 1 9.29408 1.14212 9.35931 1.35086L9.81415 2.80634C10.4714 3.03595 11.0718 3.38682 11.5885 3.83214L13.078 3.49795C13.2914 3.45007 13.5111 3.54643 13.6205 3.73582Z" fill="#222222"/>
</g>
<defs>
<clipPath id="clip0_28237_28604">
<rect width="16" height="16" fill="white"/>
</clipPath>
</defs>
</svg>
