<svg width="16" height="16" viewBox="0 0 16 16" fill="none" xmlns="http://www.w3.org/2000/svg">
<path d="M11.3536 6.3536C11.5488 6.15834 11.5488 5.84176 11.3536 5.64649C11.1583 5.45123 10.8417 5.45123 10.6464 5.64649L7 9.29294L5.35355 7.64649C5.15829 7.45123 4.84171 7.45123 4.64645 7.64649C4.45118 7.84175 4.45118 8.15834 4.64645 8.3536L6.64645 10.3536C6.84171 10.5489 7.15829 10.5489 7.35355 10.3536L11.3536 6.3536Z" fill="#222222"/>
<path fill-rule="evenodd" clip-rule="evenodd" d="M15 4.78687V3.75396C15 2.60189 14.0405 1.75966 12.9859 1.73891C12.3809 1.727 11.7365 1.66732 11.3207 1.52654C10.5251 1.25721 9.60828 0.774187 9.02898 0.445456C8.39162 0.0837739 7.60838 0.083774 6.97102 0.445456C6.39172 0.774187 5.47486 1.25721 4.67933 1.52654C4.2635 1.66732 3.61909 1.727 3.01406 1.73891C1.95945 1.75966 1 2.60189 1 3.75396V4.78687C1 9.19128 3.28722 13.2797 7.04054 15.5844C7.62913 15.9458 8.37087 15.9458 8.95946 15.5844C12.7128 13.2797 15 9.19128 15 4.78687ZM14 4.78687V3.75396C14 3.19449 13.5256 2.74972 12.9663 2.73872C12.3466 2.72652 11.5708 2.66699 11 2.47373C10.1106 2.17263 9.12599 1.65029 8.53544 1.31518C8.20418 1.1272 7.79582 1.1272 7.46456 1.31518C6.87401 1.65029 5.88938 2.17263 5 2.47373C4.42917 2.66699 3.65339 2.72652 3.03374 2.73872C2.47438 2.74972 2 3.19449 2 3.75396V4.78687C2 8.84367 4.10671 12.6094 7.5638 14.7322C7.83139 14.8965 8.16861 14.8965 8.4362 14.7322C11.8933 12.6094 14 8.84367 14 4.78687Z" fill="#222222"/>
</svg>
