<svg width="16" height="16" viewBox="0 0 16 16" fill="none" xmlns="http://www.w3.org/2000/svg">
<path fill-rule="evenodd" clip-rule="evenodd" d="M15 3.75396V4.78687C15 9.19129 12.7128 13.2797 8.95946 15.5844C8.37087 15.9458 7.62913 15.9458 7.04054 15.5844C3.28722 13.2797 1 9.19128 1 4.78687V3.75396C1 2.60189 1.95945 1.75966 3.01406 1.73891C3.61909 1.727 4.2635 1.66732 4.67933 1.52654C5.47486 1.25721 6.39172 0.774187 6.97102 0.445456C7.60838 0.083774 8.39162 0.0837739 9.02898 0.445456C9.60828 0.774187 10.5251 1.25721 11.3207 1.52654C11.7365 1.66732 12.3809 1.727 12.9859 1.73891C14.0405 1.75966 15 2.60189 15 3.75396ZM14 3.75396V4.78687C14 8.84367 11.8933 12.6094 8.4362 14.7322C8.16861 14.8965 7.83139 14.8965 7.5638 14.7322C4.10671 12.6094 2 8.84367 2 4.78687V3.75396C2 3.19449 2.47438 2.74972 3.03374 2.73872C3.65339 2.72652 4.42917 2.66699 5 2.47373C5.88938 2.17263 6.87401 1.65029 7.46456 1.31518C7.79582 1.1272 8.20418 1.1272 8.53544 1.31518C9.12599 1.65029 10.1106 2.17263 11 2.47373C11.5708 2.66699 12.3466 2.72652 12.9663 2.73872C13.5256 2.74972 14 3.19449 14 3.75396Z" fill="#222222"/>
</svg>
