<svg width="16" height="16" viewBox="0 0 16 16" fill="none" xmlns="http://www.w3.org/2000/svg">
<path fill-rule="evenodd" clip-rule="evenodd" d="M7.75 4.5C8.44036 4.5 9 3.94036 9 3.25C9 2.55964 8.44036 2 7.75 2C7.05964 2 6.5 2.55964 6.5 3.25C6.5 3.94036 7.05964 4.5 7.75 4.5ZM9 6.7H8.91658C8.97074 6.86782 9 7.04683 9 7.23267V11.8H10.65C10.9814 11.8 11.25 12.0686 11.25 12.4C11.25 12.7314 10.9814 13 10.65 13H5.35C5.01863 13 4.75 12.7314 4.75 12.4C4.75 12.0686 5.01863 11.8 5.35 11.8H7.25V6.7H6.1C5.76863 6.7 5.5 6.43137 5.5 6.1C5.5 5.76863 5.76863 5.5 6.1 5.5H7.26733H8.125C8.60825 5.5 9 5.89175 9 6.375V6.7Z" fill="black"/>
</svg>
