<svg width="16" height="16" viewBox="0 0 16 16" fill="none" xmlns="http://www.w3.org/2000/svg">
<g clip-path="url(#clip0_28237_28623)">
<path d="M10.109 3.81337L10.108 3.8123C9.52186 3.2733 8.81529 3 8.00786 3C7.18929 3 6.476 3.28989 5.88786 3.86146C5.29871 4.43987 5 5.15585 5 5.98946C5 6.13965 5.01429 6.27585 5.04557 6.437C5.08386 6.63376 5.27429 6.7552 5.46014 6.70239L5.95843 6.60804C6.11771 6.5627 6.22257 6.40261 6.20157 6.23202C6.19157 6.14939 6.18643 6.07011 6.18643 5.98946C6.18643 5.49626 6.37157 5.07398 6.73743 4.73417C7.084 4.4038 7.51143 4.23626 8.00786 4.23626C8.49429 4.23626 8.917 4.39346 9.26486 4.70389C9.629 5.02193 9.81357 5.4217 9.81357 5.89207C9.81357 6.86029 9.24161 7.35218 8.85161 7.68758C8.82081 7.71406 8.79115 7.73957 8.763 7.76426C8.65469 7.85937 8.51633 7.95646 8.36973 8.05931C8.03411 8.29481 7.65532 8.56059 7.49514 8.90237C7.36265 9.18534 7.3611 9.27556 7.3563 9.55643L7.35471 9.64239C7.35057 9.83824 7.5 10 7.68814 10H8.21114C8.38929 10 8.53486 9.85406 8.544 9.66872C8.55614 9.41961 8.66486 9.19622 8.88729 9.02837C8.94075 8.98801 9.00738 8.94141 9.0837 8.88803C9.71276 8.44802 11 7.54766 11 5.89207C11 5.08007 10.7003 4.38083 10.109 3.81337Z" fill="#222222"/>
<path d="M8 11C7.44855 11 7 11.4487 7 12C7 12.5515 7.44855 13 8 13C8.55145 13 9 12.5515 9 12C9 11.4487 8.55145 11 8 11Z" fill="#222222"/>
<path fill-rule="evenodd" clip-rule="evenodd" d="M16 8C16 12.4183 12.4183 16 8 16C3.58172 16 0 12.4183 0 8C0 3.58172 3.58172 0 8 0C12.4183 0 16 3.58172 16 8ZM15 8C15 11.866 11.866 15 8 15C4.13401 15 1 11.866 1 8C1 4.13401 4.13401 1 8 1C11.866 1 15 4.13401 15 8Z" fill="#222222"/>
</g>
<defs>
<clipPath id="clip0_28237_28623">
<rect width="16" height="16" fill="white"/>
</clipPath>
</defs>
</svg>
