<svg width="16" height="16" viewBox="0 0 16 16" fill="none" xmlns="http://www.w3.org/2000/svg">
<g clip-path="url(#clip0_28237_28673)">
<path d="M2.64645 5.14645C2.45119 5.34171 2.45119 5.65829 2.64645 5.85355C2.84171 6.04882 3.15829 6.04881 3.35355 5.85355L7.49998 1.70713L7.49978 12.5C7.49978 12.7761 7.72363 13 7.99977 13C8.27591 13 8.49978 12.7762 8.49978 12.5L8.49998 1.70708L12.6464 5.85355C12.8417 6.04882 13.1583 6.04882 13.3536 5.85355C13.5488 5.65829 13.5488 5.34171 13.3536 5.14645L8.35355 0.146446C8.25979 0.0526776 8.13261 -5.12944e-07 8 -5.24537e-07C7.86739 -5.3613e-07 7.74022 0.0526776 7.64645 0.146446L2.64645 5.14645Z" fill="#222222"/>
<path d="M13.5 15.5C13.7761 15.5 14 15.2761 14 15C14 14.7239 13.7761 14.5 13.5 14.5L2.5 14.5C2.22386 14.5 2 14.7239 2 15C2 15.2761 2.22386 15.5 2.5 15.5L13.5 15.5Z" fill="#222222"/>
</g>
<defs>
<clipPath id="clip0_28237_28673">
<rect width="16" height="16" fill="white"/>
</clipPath>
</defs>
</svg>
