<svg width="16" height="16" viewBox="0 0 16 16" fill="none" xmlns="http://www.w3.org/2000/svg">
<g clip-path="url(#clip0_28237_28596)">
<path fill-rule="evenodd" clip-rule="evenodd" d="M16 8C16 12.4183 12.4183 16 8 16C3.58172 16 0 12.4183 0 8C0 3.58172 3.58172 0 8 0C12.4183 0 16 3.58172 16 8ZM13.7553 11.9857C14.5401 10.8546 15 9.48099 15 8C15 4.13401 11.866 1 8 1C4.13401 1 1 4.13401 1 8C1 9.48079 1.4598 10.8542 2.24441 11.9852C3.22739 11.0671 4.54872 10.5048 6.00078 10.5061C7.35767 10.5073 8.64305 10.5077 9.99992 10.507C11.4512 10.5062 12.7723 11.0681 13.7553 11.9857ZM2.87363 12.7666C4.15172 14.1406 5.9755 15 8 15C10.0243 15 11.8479 14.1407 13.126 12.767C12.3159 11.9857 11.2141 11.5063 10.0005 11.507C8.64303 11.5077 7.35716 11.5073 5.99991 11.5061C4.78578 11.5051 3.68373 11.9848 2.87363 12.7666ZM8 3.5C6.61929 3.5 5.5 4.61929 5.5 6C5.5 7.38071 6.61929 8.5 8 8.5C9.38071 8.5 10.5 7.38071 10.5 6C10.5 4.61929 9.38071 3.5 8 3.5ZM4.5 6C4.5 4.067 6.067 2.5 8 2.5C9.933 2.5 11.5 4.067 11.5 6C11.5 7.933 9.933 9.5 8 9.5C6.067 9.5 4.5 7.933 4.5 6Z" fill="#222222"/>
<path fill-rule="evenodd" clip-rule="evenodd" d="M4.5 6C4.5 4.067 6.067 2.5 8 2.5C9.933 2.5 11.5 4.067 11.5 6C11.5 7.933 9.933 9.5 8 9.5C6.067 9.5 4.5 7.933 4.5 6ZM8 3.5C6.61929 3.5 5.5 4.61929 5.5 6C5.5 7.38071 6.61929 8.5 8 8.5C9.38071 8.5 10.5 7.38071 10.5 6C10.5 4.61929 9.38071 3.5 8 3.5Z" fill="#222222"/>
<path fill-rule="evenodd" clip-rule="evenodd" d="M16 8C16 12.4183 12.4183 16 8 16C3.58172 16 0 12.4183 0 8C0 3.58172 3.58172 0 8 0C12.4183 0 16 3.58172 16 8ZM13.7553 11.9857C14.5401 10.8546 15 9.48099 15 8C15 4.13401 11.866 1 8 1C4.13401 1 1 4.13401 1 8C1 9.48079 1.4598 10.8542 2.24441 11.9852C3.22739 11.0671 4.54872 10.5048 6.00078 10.5061C7.35767 10.5073 8.64305 10.5077 9.99992 10.507C11.4512 10.5062 12.7723 11.0681 13.7553 11.9857ZM2.87363 12.7666C4.15172 14.1406 5.9755 15 8 15C10.0243 15 11.8479 14.1407 13.126 12.767C12.3159 11.9857 11.2141 11.5063 10.0005 11.507C8.64303 11.5077 7.35716 11.5073 5.99991 11.5061C4.78578 11.5051 3.68373 11.9848 2.87363 12.7666Z" fill="#222222"/>
</g>
<defs>
<clipPath id="clip0_28237_28596">
<rect width="16" height="16" fill="white"/>
</clipPath>
</defs>
</svg>
