<svg width="16" height="16" viewBox="0 0 16 16" fill="none" xmlns="http://www.w3.org/2000/svg">
<path fill-rule="evenodd" clip-rule="evenodd" d="M2 1.5C2 1.22386 2.22386 1 2.5 1H13.5C13.7761 1 14 1.22386 14 1.5C14 1.77614 13.7761 2 13.5 2H13V2.4041C13 4.03813 12.3846 5.61222 11.2762 6.81292L10.1805 8L11.2762 9.18708C12.3846 10.3878 13 11.9619 13 13.5959V14H13.5C13.7761 14 14 14.2239 14 14.5C14 14.7761 13.7761 15 13.5 15L2.5 15C2.22386 15 2 14.7761 2 14.5C2 14.2239 2.22386 14 2.5 14H3V13.5959C3 11.9619 3.61544 10.3878 4.72378 9.18708L5.81955 8L4.72378 6.81292C3.61544 5.61222 3 4.03813 3 2.4041V2L2.5 2C2.22386 2 2 1.77614 2 1.5ZM4 14L12 14V13.5959C12 12.2133 11.4792 10.8813 10.5414 9.86536L9.1326 8.33914C8.9558 8.14761 8.9558 7.85239 9.1326 7.66086L10.5414 6.13464C11.4792 5.11867 12 3.78674 12 2.4041V2L4 2V2.4041C4 3.78674 4.52076 5.11867 5.45858 6.13464L6.8674 7.66086C7.0442 7.85239 7.0442 8.14761 6.8674 8.33914L5.45858 9.86536C4.52076 10.8813 4 12.2133 4 13.5959V14Z" fill="#222222"/>
</svg>
