<svg width="24" height="24" viewBox="0 0 24 24" fill="none" xmlns="http://www.w3.org/2000/svg">
<path fill-rule="evenodd" clip-rule="evenodd" d="M5.42461 9.46869C6.11853 6.47828 8.79843 4.25 12 4.25C15.7279 4.25 18.75 7.27208 18.75 11C18.75 11.1031 18.7477 11.2057 18.7431 11.3078C21.0135 11.6645 22.75 13.6294 22.75 16C22.75 18.6234 20.6234 20.75 18 20.75H7C3.82436 20.75 1.25 18.1756 1.25 15C1.25 12.3701 3.01486 10.1539 5.42461 9.46869ZM12 5.75C9.37294 5.75 7.19536 7.68027 6.8105 10.1998C6.76241 10.5145 6.52081 10.7646 6.20788 10.8235C4.23922 11.1942 2.75 12.924 2.75 15C2.75 17.3472 4.65279 19.25 7 19.25H18C19.7949 19.25 21.25 17.7949 21.25 16C21.25 14.2051 19.7949 12.75 18 12.75H17.917C17.6964 12.75 17.487 12.6529 17.3445 12.4845C17.202 12.3161 17.1409 12.0935 17.1774 11.8759C17.2251 11.5915 17.25 11.299 17.25 11C17.25 8.10051 14.8995 5.75 12 5.75Z" fill="#222222"/>
</svg>
