<svg width="24" height="24" viewBox="0 0 24 24" fill="none" xmlns="http://www.w3.org/2000/svg">
<path fill-rule="evenodd" clip-rule="evenodd" d="M7.32818 19.7317C7.1441 20.1028 7.29567 20.5528 7.66674 20.7369C9.02882 21.4126 10.5149 21.75 12.0001 21.75C14.4941 21.75 16.9906 20.7979 18.8942 18.8943C22.7018 15.0867 22.7018 8.91332 18.8942 5.10571C15.0866 1.2981 8.91326 1.2981 5.10565 5.10571C3.20086 7.0105 2.24881 9.50888 2.24994 12.0044V12.0046V12.0048L2.24994 12.1893L1.53033 11.4697C1.23744 11.1768 0.762564 11.1768 0.46967 11.4697C0.176777 11.7625 0.176776 12.2374 0.46967 12.5303L2.4629 14.5236C2.59912 14.6632 2.78939 14.75 2.99992 14.75C3.17255 14.75 3.33157 14.6917 3.45832 14.5937C3.48352 14.5742 3.50758 14.5531 3.53033 14.5303L5.53033 12.5303C5.82322 12.2374 5.82322 11.7626 5.53033 11.4697C5.23744 11.1768 4.76256 11.1768 4.46967 11.4697L3.74994 12.1894L3.74994 12.0044V12.0041C3.74891 9.89019 4.55422 7.77846 6.16631 6.16637C9.38814 2.94454 14.6117 2.94454 17.8336 6.16637C21.0554 9.38819 21.0554 14.6118 17.8336 17.8336C16.2225 19.4447 14.1125 20.25 12 20.25C10.7416 20.25 9.48417 19.9641 8.33336 19.3932C7.9623 19.2091 7.51226 19.3607 7.32818 19.7317ZM10.25 7.99999C10.25 7.58577 10.5858 7.24999 11 7.24999C11.4142 7.24999 11.75 7.58577 11.75 7.99999V12.25H16C16.4142 12.25 16.75 12.5858 16.75 13C16.75 13.4142 16.4142 13.75 16 13.75H11C10.5858 13.75 10.25 13.4142 10.25 13V7.99999Z" fill="#222222"/>
</svg>
