<svg width="24" height="24" viewBox="0 0 24 24" fill="none" xmlns="http://www.w3.org/2000/svg">
<path fill-rule="evenodd" clip-rule="evenodd" d="M5.75 3C4.23122 3 3 4.23122 3 5.75V18.25C3 19.7688 4.23122 21 5.75 21H13.25C14.7688 21 16 19.7688 16 18.25V17C16 16.5858 15.6642 16.25 15.25 16.25C14.8358 16.25 14.5 16.5858 14.5 17V18.25C14.5 18.9404 13.9404 19.5 13.25 19.5H5.75C5.05964 19.5 4.5 18.9404 4.5 18.25V5.75C4.5 5.05964 5.05964 4.5 5.75 4.5H13.25C13.9404 4.5 14.5 5.05964 14.5 5.75V7C14.5 7.41421 14.8358 7.75 15.25 7.75C15.6642 7.75 16 7.41421 16 7V5.75C16 4.23122 14.7688 3 13.25 3H5.75ZM18.2603 8.20041C17.9568 7.91855 17.4823 7.93613 17.2004 8.23966C16.9186 8.54319 16.9361 9.01774 17.2397 9.29959L19.3401 11.25H10.75C10.3358 11.25 10 11.5858 10 12C10 12.4142 10.3358 12.75 10.75 12.75H19.3401L17.2397 14.7004C16.9361 14.9823 16.9186 15.4568 17.2004 15.7603C17.4823 16.0639 17.9568 16.0814 18.2603 15.7996L21.7603 12.5496C21.9132 12.4077 22 12.2086 22 12C22 11.7914 21.9132 11.5923 21.7603 11.4504L18.2603 8.20041Z" fill="#222222"/>
</svg>
