<svg width="24" height="24" viewBox="0 0 24 24" fill="none" xmlns="http://www.w3.org/2000/svg">
<path fill-rule="evenodd" clip-rule="evenodd" d="M6.75 8.75C6.75 5.85051 9.10051 3.5 12 3.5C14.8995 3.5 17.25 5.85051 17.25 8.75V12.4207V12.9511L17.7501 13.1278C18.625 13.4371 19.25 14.2715 19.25 15.25C19.25 16.4926 18.2426 17.5 17 17.5H7C5.75736 17.5 4.75 16.4926 4.75 15.25C4.75 14.2715 5.37503 13.4371 6.24993 13.1278L6.75 12.9511V12.4207V8.75ZM12 2C8.27208 2 5.25 5.02208 5.25 8.75V11.9327C4.06123 12.5611 3.25 13.8101 3.25 15.25C3.25 17.3211 4.92893 19 7 19H17C19.0711 19 20.75 17.3211 20.75 15.25C20.75 13.8101 19.9388 12.5611 18.75 11.9327V8.75C18.75 5.02208 15.7279 2 12 2ZM14 20C14 21.1046 13.1046 22 12 22C10.8954 22 10 21.1046 10 20H14Z" fill="#222222"/>
</svg>
