<svg width="24" height="24" viewBox="0 0 24 24" fill="none" xmlns="http://www.w3.org/2000/svg">
<path fill-rule="evenodd" clip-rule="evenodd" d="M10.6836 3.92094C10.7176 3.81886 10.8132 3.75 10.9208 3.75H13.0793C13.1869 3.75 13.2824 3.81886 13.3164 3.92094L13.8817 5.61665C13.9489 5.8184 14.0987 5.98212 14.2936 6.06706C14.8595 6.31356 15.3821 6.64163 15.8466 7.03667C16.0223 7.18608 16.2569 7.24636 16.4829 7.20012L18.3384 6.82042C18.4438 6.79884 18.5512 6.84715 18.605 6.94034L19.6843 8.80964C19.7381 8.90283 19.7262 9.02 19.6548 9.10051L18.2153 10.7239C18.0796 10.8769 18.0123 11.0787 18.029 11.2826C18.0429 11.4531 18.05 11.6256 18.05 11.8C18.05 12.0838 18.0312 12.3628 17.9947 12.6359C17.9659 12.8519 18.0324 13.0697 18.177 13.2327L19.6548 14.8993C19.7262 14.9798 19.7381 15.097 19.6843 15.1902L18.605 17.0595C18.5512 17.1527 18.4438 17.201 18.3384 17.1794L16.0807 16.7174C15.8735 16.675 15.658 16.7221 15.4874 16.847C15.1588 17.0875 14.8061 17.2965 14.4336 17.4699C14.2467 17.5569 14.1038 17.717 14.0386 17.9127L13.3164 20.0791C13.2824 20.1811 13.1869 20.25 13.0793 20.25H10.9208C10.8132 20.25 10.7176 20.1811 10.6836 20.0791L10.027 18.1091C9.95574 17.8954 9.79226 17.7251 9.58171 17.6451C9.08536 17.4566 8.61898 17.2065 8.19192 16.904C8.02264 16.7841 7.81126 16.7397 7.60803 16.7813L5.66166 17.1796L5.81202 17.9143L5.66166 17.1796C5.55623 17.2011 5.44883 17.1528 5.39503 17.0596L4.31579 15.1903C4.26199 15.0972 4.27385 14.98 4.34525 14.8995L5.48484 13.6143C5.63905 13.4404 5.70392 13.2048 5.66046 12.9765C5.58804 12.596 5.55003 12.2028 5.55003 11.8C5.55003 11.503 5.57069 11.2112 5.61056 10.926C5.64095 10.7086 5.57457 10.4888 5.42893 10.3246L4.34349 9.10053C4.27209 9.02001 4.26023 8.90285 4.31403 8.80966L5.39327 6.94036C5.44708 6.84717 5.55448 6.79886 5.6599 6.82043L7.19532 7.13464C7.41752 7.18011 7.64836 7.12258 7.82325 6.97817C8.38192 6.51681 9.02158 6.15103 9.7172 5.90524C9.93533 5.82817 10.1057 5.65474 10.1788 5.43526L10.6836 3.92094ZM10.9208 2.25C10.1675 2.25 9.49879 2.732 9.26059 3.4466L8.86813 4.62399C8.25356 4.87532 7.67875 5.20313 7.15548 5.5954L5.96062 5.35089C5.22266 5.19988 4.47086 5.53802 4.09423 6.19036L3.01499 8.05966C2.63837 8.712 2.72142 9.53215 3.22118 10.0957L4.08412 11.0689C4.06155 11.3097 4.05003 11.5536 4.05003 11.8C4.05003 12.1683 4.07578 12.531 4.12565 12.8863L3.22294 13.9043C2.72318 14.4679 2.64012 15.288 3.01675 15.9403L4.09599 17.8096C4.47262 18.462 5.22442 18.8001 5.96238 18.6491L7.59972 18.3141C7.95207 18.5417 8.32419 18.7416 8.71299 18.9106L9.26059 20.5534C9.49879 21.268 10.1675 21.75 10.9208 21.75H13.0793C13.8325 21.75 14.5013 21.268 14.7395 20.5534L15.3625 18.6843C15.6154 18.5532 15.86 18.4086 16.0956 18.2515L18.0377 18.649C18.7756 18.8 19.5274 18.4618 19.9041 17.8095L20.9833 15.9402C21.3599 15.2879 21.2769 14.4677 20.7771 13.9041L19.52 12.4865C19.5399 12.2601 19.55 12.0312 19.55 11.8C19.55 11.6951 19.5479 11.5906 19.5438 11.4866L20.7771 10.0957C21.2769 9.53213 21.3599 8.71198 20.9833 8.05964L20.3338 8.43464L20.9833 8.05964L19.9041 6.19034C19.5274 5.538 18.7756 5.19986 18.0377 5.35087L16.529 5.6596C16.1177 5.34242 15.6735 5.06554 15.2023 4.83495L14.7395 3.4466C14.5013 2.732 13.8325 2.25 13.0793 2.25H10.9208ZM9.5 12C9.5 10.6193 10.6193 9.5 12 9.5C13.3807 9.5 14.5 10.6193 14.5 12C14.5 13.3807 13.3807 14.5 12 14.5C10.6193 14.5 9.5 13.3807 9.5 12ZM12 8C9.79086 8 8 9.79086 8 12C8 14.2091 9.79086 16 12 16C14.2091 16 16 14.2091 16 12C16 9.79086 14.2091 8 12 8Z" fill="#222222"/>
</svg>
