<svg width="24" height="24" viewBox="0 0 24 24" fill="none" xmlns="http://www.w3.org/2000/svg">
<path fill-rule="evenodd" clip-rule="evenodd" d="M17 2.75C16.3096 2.75 15.75 3.30964 15.75 4C15.75 4.69036 16.3096 5.25 17 5.25C17.6904 5.25 18.25 4.69036 18.25 4C18.25 3.30964 17.6904 2.75 17 2.75ZM14.25 4C14.25 2.48122 15.4812 1.25 17 1.25C18.5188 1.25 19.75 2.48122 19.75 4C19.75 5.51878 18.5188 6.75 17 6.75C16.478 6.75 15.9899 6.60454 15.5742 6.35195L8.57062 11.021C8.68653 11.3251 8.75 11.6552 8.75 12C8.75 12.4947 8.6194 12.9588 8.39079 13.3599C8.39574 13.3629 8.40067 13.366 8.40557 13.3691L15.326 17.818C15.7897 17.4618 16.3701 17.25 17 17.25C18.5188 17.25 19.75 18.4812 19.75 20C19.75 21.5188 18.5188 22.75 17 22.75C15.4812 22.75 14.25 21.5188 14.25 20C14.25 19.6563 14.3131 19.3273 14.4282 19.024L7.59443 14.6309C7.49575 14.5674 7.41692 14.4847 7.35971 14.3909C6.9587 14.6194 6.4946 14.75 6 14.75C4.48122 14.75 3.25 13.5188 3.25 12C3.25 10.4812 4.48122 9.25 6 9.25C6.62925 9.25 7.20913 9.46134 7.67255 9.81691L14.543 5.23658C14.3556 4.86485 14.25 4.44475 14.25 4ZM6 10.75C5.30964 10.75 4.75 11.3096 4.75 12C4.75 12.6904 5.30964 13.25 6 13.25C6.69036 13.25 7.25 12.6904 7.25 12C7.25 11.3096 6.69036 10.75 6 10.75ZM15.75 20C15.75 19.3096 16.3096 18.75 17 18.75C17.6904 18.75 18.25 19.3096 18.25 20C18.25 20.6904 17.6904 21.25 17 21.25C16.3096 21.25 15.75 20.6904 15.75 20Z" fill="#222222"/>
</svg>
