<svg width="24" height="24" viewBox="0 0 24 24" fill="none" xmlns="http://www.w3.org/2000/svg">
<path fill-rule="evenodd" clip-rule="evenodd" d="M3 2.75C3 2.33579 3.33579 2 3.75 2H20.25C20.6642 2 21 2.33579 21 2.75C21 3.16421 20.6642 3.5 20.25 3.5L18.75 3.5V5.51472C18.75 7.30493 18.0388 9.02182 16.773 10.2877L15.0607 12L16.773 13.7123C18.0388 14.9782 18.75 16.6951 18.75 18.4853V20.5L20.25 20.5C20.6642 20.5 21 20.8358 21 21.25C21 21.6642 20.6642 22 20.25 22L3.75 22C3.33579 22 3 21.6642 3 21.25C3 20.8358 3.33579 20.5 3.75 20.5H5.25V18.4853C5.25 16.6951 5.96116 14.9782 7.22703 13.7123L8.93934 12L7.22703 10.2877C5.96116 9.02182 5.25 7.30493 5.25 5.51472V3.5H3.75C3.33579 3.5 3 3.16421 3 2.75ZM6.75 20.5H17.25V18.4853C17.25 17.0929 16.6969 15.7575 15.7123 14.773L13.4697 12.5303C13.1768 12.2374 13.1768 11.7626 13.4697 11.4697L15.7123 9.22703C16.6969 8.24246 17.25 6.9071 17.25 5.51472V3.5L6.75 3.5V5.51472C6.75 6.9071 7.30312 8.24246 8.28769 9.22703L10.5303 11.4697C10.8232 11.7626 10.8232 12.2374 10.5303 12.5303L8.28769 14.773C7.30312 15.7575 6.75 17.0929 6.75 18.4853V20.5Z" fill="#222222"/>
</svg>
