<svg width="16" height="16" viewBox="0 0 16 16" fill="none" xmlns="http://www.w3.org/2000/svg">
<path fill-rule="evenodd" clip-rule="evenodd" d="M12.1417 7.6667H12.3333C12.6128 7.6667 12.8821 7.70967 13.1352 7.78936C14.2161 8.12973 15 9.14 15 10.3333C15 11.8061 13.8061 13 12.3333 13H4.5C2.567 13 1 11.5074 1 9.66649C1 8.0377 2.22666 6.68176 3.84816 6.39088C4.15617 4.47084 5.89762 3 7.99977 3C10.2015 3 12.0076 4.61351 12.1854 6.6667C12.1949 6.77659 12.1998 6.88774 12.1998 6.99998C12.1998 7.22714 12.1799 7.44987 12.1417 7.6667ZM3.01366 5.57568C1.28196 6.16049 0 7.74701 0 9.66649C0 12.1051 2.06118 14 4.5 14H12.3333C14.3584 14 16 12.3584 16 10.3333C16 8.60485 14.804 7.1557 13.1944 6.76835C13.068 4.07342 10.7469 2 7.99977 2C5.67175 2 3.6576 3.48287 3.01366 5.57568Z" fill="#222222"/>
</svg>
