<svg width="16" height="16" viewBox="0 0 16 16" fill="none" xmlns="http://www.w3.org/2000/svg">
<g clip-path="url(#clip0_28237_28644)">
<path fill-rule="evenodd" clip-rule="evenodd" d="M0.0298787 14.7574C-0.055315 15.0982 0.0445341 15.4587 0.292914 15.7071C0.541295 15.9555 0.901782 16.0553 1.24256 15.9701L5.24256 14.9701C5.41839 14.9262 5.57897 14.8352 5.70713 14.7071L15 5.41419C15.7811 4.63314 15.7811 3.36681 15 2.58576L13.4142 0.999971C12.6332 0.218924 11.3669 0.218921 10.5858 0.999971L1.29291 10.2929C1.16476 10.421 1.07384 10.5816 1.02988 10.7574L0.0298787 14.7574ZM1.00002 15L2.00002 11L9.64647 3.35352L12.6465 6.35352L5.00002 14L1.00002 15ZM13.3536 5.64642L14.2929 4.70708C14.6834 4.31655 14.6834 3.68339 14.2929 3.29286L12.7071 1.70708C12.3166 1.31655 11.6834 1.31655 11.2929 1.70708L10.3536 2.64642L13.3536 5.64642Z" fill="#222222"/>
</g>
<defs>
<clipPath id="clip0_28237_28644">
<rect width="16" height="16" fill="white"/>
</clipPath>
</defs>
</svg>
