<svg width="16" height="16" viewBox="0 0 16 16" fill="none" xmlns="http://www.w3.org/2000/svg">
<g clip-path="url(#clip0_28237_28831)">
<path d="M15.3536 1.35355C15.5488 1.15829 15.5488 0.841709 15.3536 0.646447C15.1583 0.451184 14.8417 0.451184 14.6464 0.646447L0.646447 14.6464C0.451184 14.8417 0.451184 15.1583 0.646447 15.3536C0.841709 15.5488 1.15829 15.5488 1.35355 15.3536L15.3536 1.35355Z" fill="#222222"/>
<path d="M8.0001 3C8.9554 3 9.80593 3.11786 10.5614 3.31738L9.72429 4.15444C9.19824 4.05566 8.62471 4 8.0001 4C3.68868 4 1.81119 6.65217 1.18062 7.82926C1.12143 7.93973 1.12143 8.06027 1.18062 8.17074C1.50373 8.7739 2.15425 9.76437 3.29188 10.5869L2.57688 11.3019C1.36627 10.3869 0.657393 9.31172 0.299134 8.64296C0.0819296 8.2375 0.0819294 7.7625 0.299133 7.35704C1.02244 6.00685 3.17489 3 8.0001 3Z" fill="#222222"/>
<path d="M8.0001 5C8.26883 5 8.5293 5.03533 8.77713 5.1016L5.10171 8.77702C5.03544 8.5292 5.0001 8.26872 5.0001 8C5.0001 6.34315 6.34325 5 8.0001 5Z" fill="#222222"/>
<path d="M10.8985 7.22289L7.223 10.8984C7.47085 10.9647 7.73135 11 8.0001 11C9.65696 11 11.0001 9.65685 11.0001 8C11.0001 7.73125 10.9648 7.47075 10.8985 7.22289Z" fill="#222222"/>
<path d="M8.0001 12C7.37546 12 6.80191 11.9443 6.27583 11.8455L5.43877 12.6826C6.19422 12.8821 7.04478 13 8.0001 13C12.8253 13 14.9778 9.99315 15.7011 8.64296C15.9183 8.2375 15.9183 7.7625 15.7011 7.35704C15.3428 6.68827 14.6339 5.61305 13.4233 4.6981L12.7083 5.4131C13.8459 6.23559 14.4965 7.22609 14.8196 7.82926C14.8788 7.93973 14.8788 8.06027 14.8196 8.17074C14.189 9.34783 12.3115 12 8.0001 12Z" fill="#222222"/>
</g>
<defs>
<clipPath id="clip0_28237_28831">
<rect width="16" height="16" fill="white"/>
</clipPath>
</defs>
</svg>
