<svg width="16" height="16" viewBox="0 0 16 16" fill="none" xmlns="http://www.w3.org/2000/svg">
<path fill-rule="evenodd" clip-rule="evenodd" d="M10.4756 12.6667C10.4756 13.06 10.2454 13.4169 9.88733 13.5784L6.93262 14.9118C6.62372 15.0512 6.26533 15.0241 5.9808 14.8399C5.69626 14.6556 5.52443 14.3394 5.52443 14V8.82058C5.52443 8.55768 5.42109 8.30537 5.23678 8.11823L1.57929 4.40469C0.334613 3.14093 1.22825 1 3.00043 1H12.9996C14.7717 1 15.6654 3.14093 14.4207 4.40469L10.7632 8.11823C10.5789 8.30537 10.4756 8.55768 10.4756 8.82058V12.6667ZM9.47736 12.6667V8.82058C9.47736 8.29479 9.68403 7.79016 10.0527 7.41588L13.7101 3.70235C14.3325 3.07047 13.8857 2 12.9996 2H3.00043C2.11434 2 1.66752 3.07047 2.28986 3.70234L5.94734 7.41588C6.31597 7.79016 6.52264 8.29479 6.52264 8.82058V14L9.47736 12.6667Z" fill="#222222"/>
</svg>
