<svg width="16" height="16" viewBox="0 0 16 16" fill="none" xmlns="http://www.w3.org/2000/svg">
<g clip-path="url(#clip0_28237_28776)">
<path fill-rule="evenodd" clip-rule="evenodd" d="M8 16C12.4183 16 16 12.4183 16 8C16 3.58172 12.4183 0 8 0C3.58172 0 0 3.58172 0 8C0 12.4183 3.58172 16 8 16ZM10.3493 14.596C12.1031 13.9713 13.5345 12.667 14.3264 11H11.7303C11.567 11.8664 11.3335 12.6598 11.0405 13.3437C10.8455 13.7986 10.616 14.2241 10.3493 14.596ZM10.7113 11C10.2298 13.3649 9.19674 15 8 15C6.80326 15 5.77018 13.3649 5.2887 11L10.7113 11ZM11.8833 10H14.7101C14.8987 9.36629 15 8.69497 15 8C15 7.30503 14.8987 6.63371 14.7101 6L11.8833 6C11.9599 6.64172 12 7.31258 12 8C12 8.68742 11.9599 9.35828 11.8833 10ZM10.8758 6C10.9566 6.63371 11 7.30503 11 8C11 8.69497 10.9566 9.36629 10.8758 10L5.12423 10C5.0434 9.36629 5 8.69497 5 8C5 7.30503 5.0434 6.63371 5.12423 6L10.8758 6ZM11.7303 5L14.3264 5C13.5345 3.33301 12.1031 2.02867 10.3493 1.40397C10.616 1.77586 10.8455 2.20141 11.0405 2.65633C11.3335 3.34018 11.567 4.13358 11.7303 5ZM5.65073 1.40397C3.8969 2.02867 2.46553 3.33301 1.67363 5L4.2697 5C4.43296 4.13358 4.66646 3.34018 4.95953 2.65633C5.1545 2.20141 5.384 1.77586 5.65073 1.40397ZM5.2887 5C5.77018 2.63505 6.80326 1 8 1C9.19674 1 10.2298 2.63505 10.7113 5L5.2887 5ZM4.11667 6L1.28988 6C1.10128 6.63371 1 7.30503 1 8C1 8.69497 1.10128 9.36629 1.28988 10H4.11667C4.04011 9.35828 4 8.68742 4 8C4 7.31258 4.04011 6.64172 4.11667 6ZM4.2697 11H1.67363C2.46553 12.667 3.8969 13.9713 5.65073 14.596C5.38401 14.2241 5.1545 13.7986 4.95953 13.3437C4.66646 12.6598 4.43296 11.8664 4.2697 11Z" fill="#222222"/>
</g>
<defs>
<clipPath id="clip0_28237_28776">
<rect width="16" height="16" fill="white"/>
</clipPath>
</defs>
</svg>
