<svg width="16" height="16" viewBox="0 0 16 16" fill="none" xmlns="http://www.w3.org/2000/svg">
<g clip-path="url(#clip0_28237_28692)">
<path fill-rule="evenodd" clip-rule="evenodd" d="M8.00009 4.11341L7.29303 3.40649C5.86101 1.97475 3.53947 1.97484 2.10756 3.40675C0.675725 4.83859 0.675565 7.15996 2.10708 8.59199L2.81393 9.2991L7.9994 14.4851L13.8582 8.62631C13.8697 8.61507 13.8813 8.60379 13.8927 8.59234C15.3247 7.16034 15.3247 4.83861 13.8927 3.40661C12.4608 1.97466 10.1391 1.97461 8.70713 3.40646L8.00009 4.11341ZM7.9994 15.8993L1.39946 9.29936C-0.422456 7.47679 -0.421863 4.52196 1.40046 2.69964C3.22287 0.877229 6.17751 0.877119 8.00006 2.69931C9.8226 0.876981 12.7773 0.877046 14.5998 2.6995C16.4223 4.52203 16.4223 7.47692 14.5998 9.29944C14.5853 9.31392 14.5708 9.32829 14.5562 9.34254L7.9994 15.8993Z" fill="#222222"/>
</g>
<defs>
<clipPath id="clip0_28237_28692">
<rect width="16" height="16" fill="white"/>
</clipPath>
</defs>
</svg>
