<svg width="16" height="16" viewBox="0 0 16 16" fill="none" xmlns="http://www.w3.org/2000/svg">
<g clip-path="url(#clip0_28237_28630)">
<path d="M9 4C9 4.55228 8.55228 5 8 5C7.44772 5 7 4.55228 7 4C7 3.44772 7.44772 3 8 3C8.55228 3 9 3.44772 9 4Z" fill="#222222"/>
<path d="M8.99775 6.54771C8.99924 6.53201 9 6.51609 9 6.5C9 6.22386 8.77614 6 8.5 6H6.5C6.22386 6 6 6.22386 6 6.5C6 6.77614 6.22386 7 6.5 7H7.5V12H6C5.72386 12 5.5 12.2239 5.5 12.5C5.5 12.7761 5.72386 13 6 13H10.5C10.7761 13 11 12.7761 11 12.5C11 12.2239 10.7761 12 10.5 12H9V6.6C9 6.58238 8.99924 6.56494 8.99775 6.54771Z" fill="#222222"/>
<path fill-rule="evenodd" clip-rule="evenodd" d="M16 8C16 12.4183 12.4183 16 8 16C3.58172 16 0 12.4183 0 8C0 3.58172 3.58172 0 8 0C12.4183 0 16 3.58172 16 8ZM15 8C15 11.866 11.866 15 8 15C4.13401 15 1 11.866 1 8C1 4.13401 4.13401 1 8 1C11.866 1 15 4.13401 15 8Z" fill="#222222"/>
</g>
<defs>
<clipPath id="clip0_28237_28630">
<rect width="16" height="16" fill="white"/>
</clipPath>
</defs>
</svg>
