<svg width="16" height="16" viewBox="0 0 16 16" fill="none" xmlns="http://www.w3.org/2000/svg">
<g clip-path="url(#clip0_28237_28787)">
<path fill-rule="evenodd" clip-rule="evenodd" d="M8 1C5.51472 1 3.5 3.01472 3.5 5.5V9.5C3.5 9.77614 3.27614 10 3 10C2.72386 10 2.5 9.77614 2.5 9.5V5.5C2.5 2.46243 4.96243 -2.38419e-07 8 0C11.0376 2.68221e-07 13.5 2.46243 13.5 5.5V12.1667C13.5 14.2838 11.7838 16 9.66667 16C7.54957 16 5.83333 14.2838 5.83333 12.1667L5.83333 5.5C5.83333 4.30338 6.80338 3.33333 8 3.33333C9.19662 3.33333 10.1667 4.30338 10.1667 5.5V11.5C10.1667 11.7761 9.94281 12 9.66667 12C9.39052 12 9.16667 11.7761 9.16667 11.5V5.5C9.16667 4.85567 8.64433 4.33333 8 4.33333C7.35567 4.33333 6.83333 4.85567 6.83333 5.5L6.83333 12.1667C6.83333 13.7315 8.10186 15 9.66667 15C11.2315 15 12.5 13.7315 12.5 12.1667V5.5C12.5 3.01472 10.4853 1 8 1Z" fill="#222222"/>
</g>
<defs>
<clipPath id="clip0_28237_28787">
<rect width="16" height="16" fill="white"/>
</clipPath>
</defs>
</svg>
