<svg width="16" height="16" viewBox="0 0 16 16" fill="none" xmlns="http://www.w3.org/2000/svg">
<path fill-rule="evenodd" clip-rule="evenodd" d="M7.99992 3.6603C6.55423 3.6603 5.38227 4.83226 5.38227 6.27795C5.38227 7.72364 6.55423 8.8956 7.99992 8.8956C9.44561 8.8956 10.6176 7.72364 10.6176 6.27795C10.6176 4.83226 9.44561 3.6603 7.99992 3.6603ZM6.38227 6.27795C6.38227 5.38455 7.10652 4.6603 7.99992 4.6603C8.89332 4.6603 9.61757 5.38455 9.61757 6.27795C9.61757 7.17135 8.89332 7.8956 7.99992 7.8956C7.10652 7.8956 6.38227 7.17135 6.38227 6.27795Z" fill="#222222"/>
<path fill-rule="evenodd" clip-rule="evenodd" d="M12.8535 2.14639C10.173 -0.53415 5.82694 -0.53415 3.1464 2.14639C0.465851 4.82694 0.465849 9.17295 3.14639 11.8535L6.23218 14.9393C7.20849 15.9156 8.7914 15.9156 9.76771 14.9393L12.8535 11.8535C15.534 9.17296 15.534 4.82694 12.8535 2.14639ZM3.8535 2.8535C6.14352 0.563481 9.85637 0.563481 12.1464 2.8535C14.4364 5.14352 14.4364 8.85638 12.1464 11.1464L9.06061 14.2322C8.47482 14.818 7.52507 14.818 6.93929 14.2322L3.8535 11.1464C1.56348 8.85637 1.56348 5.14352 3.8535 2.8535Z" fill="#222222"/>
</svg>
