<svg width="16" height="16" viewBox="0 0 16 16" fill="none" xmlns="http://www.w3.org/2000/svg">
<g clip-path="url(#clip0_28237_28658)">
<path d="M12.5 0C13.8807 0 15 1.11929 15 2.5V13.5C15 14.8807 13.8807 16 12.5 16H6.5C5.11929 16 4 14.8807 4 13.5V11.5C4 11.2239 4.22386 11 4.5 11C4.77614 11 5 11.2239 5 11.5V13.5C5 14.3284 5.67157 15 6.5 15H12.5C13.3284 15 14 14.3284 14 13.5V2.5C14 1.67157 13.3284 1 12.5 1H6.5C5.67157 1 5 1.67157 5 2.5V4.5C5 4.77614 4.77614 5 4.5 5C4.22386 5 4 4.77614 4 4.5V2.5C4 1.11929 5.11929 0 6.5 0H12.5Z" fill="#222222"/>
<path d="M8.81235 5.60957C8.59672 5.43706 8.28207 5.47202 8.10957 5.68765C7.93706 5.90328 7.97202 6.21793 8.18765 6.39043L9.57461 7.5H0.5C0.223858 7.5 0 7.72386 0 8C0 8.27614 0.223858 8.5 0.5 8.5H9.57461L8.18765 9.60957C7.97202 9.78207 7.93706 10.0967 8.10957 10.3123C8.28207 10.528 8.59672 10.5629 8.81235 10.3904L11.3121 8.39066C11.4307 8.29577 11.5 8.15189 11.5 8C11.5 7.84811 11.431 7.70445 11.3123 7.60957L8.81235 5.60957Z" fill="#222222"/>
</g>
<defs>
<clipPath id="clip0_28237_28658">
<rect width="16" height="16" fill="white"/>
</clipPath>
</defs>
</svg>
