<svg width="16" height="16" viewBox="0 0 16 16" fill="none" xmlns="http://www.w3.org/2000/svg">
<path fill-rule="evenodd" clip-rule="evenodd" d="M8.00024 0.5C5.23882 0.5 3.00024 2.73858 3.00024 5.5V7.62817C2.12625 7.93713 1.50024 8.77013 1.50024 9.75C1.50024 10.9926 2.5076 12 3.75024 12H12.2502C13.4929 12 14.5002 10.9926 14.5002 9.75C14.5002 8.77013 13.8742 7.93713 13.0002 7.62817V5.5C13.0002 2.73858 10.7617 0.5 8.00024 0.5ZM4.00024 5.5C4.00024 3.29086 5.79111 1.5 8.00024 1.5C10.2094 1.5 12.0002 3.29086 12.0002 5.5V8.45129L12.4294 8.51268C13.0347 8.59927 13.5002 9.1207 13.5002 9.75C13.5002 10.4404 12.9406 11 12.2502 11H3.75024C3.05989 11 2.50024 10.4404 2.50024 9.75C2.50024 9.1207 2.96574 8.59927 3.57104 8.51268L4.00024 8.45129V5.5Z" fill="#222222"/>
<path d="M10.0002 13C10.0002 14.1046 9.10481 15 8.00024 15C6.89567 15 6.00024 14.1046 6.00024 13H10.0002Z" fill="#222222"/>
</svg>
