<svg width="16" height="16" viewBox="0 0 16 16" fill="none" xmlns="http://www.w3.org/2000/svg">
<g clip-path="url(#clip0_28237_28733)">
<path fill-rule="evenodd" clip-rule="evenodd" d="M1.1665 7.99992C1.1665 4.59416 3.92741 1.83325 7.33317 1.83325C10.5019 1.83325 13.1125 4.22329 13.4604 7.29903L12.951 6.94586C12.7241 6.78853 12.4126 6.84496 12.2552 7.0719C12.0979 7.29884 12.1543 7.61036 12.3813 7.76768L14.0758 8.94247C14.1966 9.02619 14.3481 9.05254 14.49 9.01454C14.632 8.97654 14.75 8.87802 14.8128 8.74516L15.694 6.8802C15.812 6.63053 15.7052 6.33249 15.4556 6.21451C15.2059 6.09654 14.9078 6.2033 14.7899 6.45298L14.4521 7.1679C14.0398 3.60182 11.0098 0.833252 7.33317 0.833252C3.37513 0.833252 0.166504 4.04188 0.166504 7.99992C0.166504 11.958 3.37513 15.1666 7.33317 15.1666C8.45359 15.1666 9.51529 14.9091 10.4611 14.4497C10.7095 14.329 10.813 14.0298 10.6923 13.7814C10.5717 13.5331 10.2725 13.4295 10.0241 13.5502C9.21153 13.9449 8.29894 14.1666 7.33317 14.1666C3.92741 14.1666 1.1665 11.4057 1.1665 7.99992Z" fill="#222222"/>
</g>
<defs>
<clipPath id="clip0_28237_28733">
<rect width="16" height="16" fill="white"/>
</clipPath>
</defs>
</svg>
