<svg width="16" height="16" viewBox="0 0 16 16" fill="none" xmlns="http://www.w3.org/2000/svg">
<path fill-rule="evenodd" clip-rule="evenodd" d="M13 4C14.1046 4 15 3.10457 15 2C15 0.895431 14.1046 0 13 0C11.8954 0 11 0.895431 11 2C11 2.19729 11.0286 2.3879 11.0818 2.56793C11.0799 2.56903 11.078 2.57013 11.0762 2.57125L4.4095 6.57125C4.40744 6.57249 4.40539 6.57374 4.40335 6.575C4.04231 6.21942 3.54678 6 3 6C1.89543 6 1 6.89543 1 8C1 9.10457 1.89543 10 3 10C3.54678 10 4.04231 9.78058 4.40335 9.42499C4.40539 9.42626 4.40744 9.42751 4.4095 9.42875L11.0762 13.4287C11.078 13.4299 11.0799 13.431 11.0818 13.4321C11.0286 13.6121 11 13.8027 11 14C11 15.1046 11.8954 16 13 16C14.1046 16 15 15.1046 15 14C15 12.8954 14.1046 12 13 12C12.4533 12 11.9577 12.2194 11.5967 12.5749C11.5947 12.5737 11.5927 12.5725 11.5907 12.5713L4.924 8.57125C4.92208 8.5701 4.92016 8.56897 4.91824 8.56785C4.97144 8.38784 5 8.19726 5 8C5 7.80274 4.97144 7.61216 4.91824 7.43215C4.92016 7.43103 4.92208 7.4299 4.924 7.42875L11.5907 3.42875C11.5927 3.42753 11.5947 3.4263 11.5967 3.42506C11.9577 3.78061 12.4533 4 13 4ZM14 2C14 2.55228 13.5523 3 13 3C12.4477 3 12 2.55228 12 2C12 1.44772 12.4477 1 13 1C13.5523 1 14 1.44772 14 2ZM4 8C4 8.55228 3.55228 9 3 9C2.44772 9 2 8.55228 2 8C2 7.44772 2.44772 7 3 7C3.55228 7 4 7.44772 4 8ZM13 13C13.5523 13 14 13.4477 14 14C14 14.5523 13.5523 15 13 15C12.4477 15 12 14.5523 12 14C12 13.4477 12.4477 13 13 13Z" fill="#222222"/>
</svg>
