<svg width="16" height="16" viewBox="0 0 16 16" fill="none" xmlns="http://www.w3.org/2000/svg">
<g clip-path="url(#clip0_28237_28747)">
<path d="M15.8535 0.853553C16.0488 0.658291 16.0488 0.341708 15.8535 0.146446C15.6583 -0.0488157 15.3417 -0.0488154 15.1464 0.146447L0.146446 15.1464C-0.0488157 15.3417 -0.0488154 15.6583 0.146447 15.8536C0.341709 16.0488 0.658292 16.0488 0.853554 15.8536L15.8535 0.853553Z" fill="#222222"/>
<path d="M11.3207 1.52649C11.7056 1.6568 12.2863 1.71763 12.8504 1.7354L11.9175 2.66832C11.5911 2.62761 11.2723 2.56586 11 2.47369C10.1106 2.17259 9.12599 1.65025 8.53544 1.31513C8.20418 1.12715 7.79582 1.12715 7.46456 1.31513C6.87401 1.65025 5.88938 2.17259 5 2.47369C4.42917 2.66694 3.65339 2.72648 3.03374 2.73867C2.47438 2.74968 2 3.19444 2 3.75391V4.78682C2 6.97013 2.61019 9.06914 3.71268 10.8731L2.98693 11.5989C1.70961 9.59531 1 7.24008 1 4.78682V3.75391C1 2.60185 1.95945 1.75962 3.01406 1.73886C3.61909 1.72696 4.2635 1.66727 4.67933 1.52649C5.47486 1.25717 6.39172 0.774141 6.97102 0.44541C7.60838 0.0837282 8.39162 0.0837281 9.02898 0.44541C9.60828 0.774141 10.5251 1.25717 11.3207 1.52649Z" fill="#222222"/>
<path d="M13.9545 3.45967L14.7038 2.71044C14.8901 3.00954 15 3.36398 15 3.75391V4.78683C15 9.19124 12.7128 13.2797 8.95946 15.5843C8.37087 15.9457 7.62913 15.9457 7.04054 15.5843C5.96947 14.9267 5.01779 14.1237 4.20458 13.2096L4.913 12.5012C5.67047 13.3613 6.56024 14.1159 7.5638 14.7322C7.83139 14.8965 8.16861 14.8965 8.4362 14.7322C11.8933 12.6094 14 8.84363 14 4.78683V3.75391C14 3.65132 13.984 3.55258 13.9545 3.45967Z" fill="#222222"/>
</g>
<defs>
<clipPath id="clip0_28237_28747">
<rect width="16" height="16" fill="white"/>
</clipPath>
</defs>
</svg>
