<svg width="16" height="16" viewBox="0 0 16 16" fill="none" xmlns="http://www.w3.org/2000/svg">
<g clip-path="url(#clip0_28237_28698)">
<path fill-rule="evenodd" clip-rule="evenodd" d="M6.63791 1.25918C7.17403 0.0968777 8.82596 0.0968709 9.36208 1.25918L10.7588 4.28727C10.8316 4.44517 10.9813 4.5539 11.154 4.57437L14.4655 4.967C15.7365 5.11771 16.247 6.68879 15.3073 7.55784L12.859 9.82194C12.7313 9.94 12.6742 10.1159 12.7081 10.2865L13.358 13.5572C13.6074 14.8127 12.271 15.7837 11.1541 15.1584L8.24422 13.5296C8.09248 13.4447 7.90751 13.4447 7.75577 13.5296L4.84594 15.1584C3.72902 15.7836 2.39258 14.8127 2.64203 13.5572L3.29193 10.2865C3.32582 10.1159 3.26866 9.94 3.14099 9.82194L0.692718 7.55784C-0.247031 6.68879 0.26344 5.11771 1.53453 4.967L4.84603 4.57437C5.01871 4.5539 5.16835 4.44517 5.24119 4.28727L6.63791 1.25918ZM8.45402 1.67803C8.27532 1.29059 7.72467 1.29059 7.54597 1.67803L6.14924 4.70612C5.93074 5.17983 5.48181 5.50599 4.96377 5.56741L1.65227 5.96005C1.22858 6.01028 1.05842 6.53398 1.37167 6.82366L3.81994 9.08775C4.20295 9.44194 4.37442 9.96969 4.27275 10.4814L3.62286 13.7521C3.53971 14.1706 3.98519 14.4943 4.35749 14.2859L7.26733 12.657C7.72254 12.4022 8.27745 12.4022 8.73266 12.6571L11.6425 14.2859C12.0148 14.4943 12.4603 14.1706 12.3771 13.7521L11.7272 10.4814C11.6256 9.96969 11.797 9.44194 12.18 9.08775L14.6283 6.82366C14.9416 6.53398 14.7714 6.01028 14.3477 5.96005L11.0362 5.56741C10.5182 5.50599 10.0692 5.17983 9.85075 4.70612L8.45402 1.67803Z" fill="#222222"/>
</g>
<defs>
<clipPath id="clip0_28237_28698">
<rect width="16" height="16" fill="white"/>
</clipPath>
</defs>
</svg>
