<svg width="16" height="16" viewBox="0 0 16 16" fill="none" xmlns="http://www.w3.org/2000/svg">
<g clip-path="url(#clip0_28237_27982)">
<circle cx="8" cy="8" r="7.5" stroke="#555555"/>
</g>
<path fill-rule="evenodd" clip-rule="evenodd" d="M6.25 6C6.25 5.06102 7.06102 4.25 8 4.25C8.93898 4.25 9.75 5.06102 9.75 6C9.75 6.54615 9.4188 7.00699 8.82446 7.3508C8.05422 7.79635 7.25 8.73112 7.25 9.81708V10C7.25 10.4142 7.58579 10.75 8 10.75C8.41421 10.75 8.75 10.4142 8.75 10V9.81708C8.75 9.44824 9.08649 8.93211 9.57554 8.6492C10.4459 8.14572 11.25 7.26767 11.25 6C11.25 4.2326 9.7674 2.75 8 2.75C6.2326 2.75 4.75 4.2326 4.75 6C4.75 6.41421 5.08579 6.75 5.5 6.75C5.91421 6.75 6.25 6.41421 6.25 6ZM7 12.5C7 11.9487 7.44855 11.5 8 11.5C8.55145 11.5 9 11.9487 9 12.5C9 13.0515 8.55145 13.5 8 13.5C7.44855 13.5 7 13.0515 7 12.5Z" fill="#555555"/>
<defs>
<clipPath id="clip0_28237_27982">
<rect width="16" height="16" fill="white"/>
</clipPath>
</defs>
</svg>
