<svg width="24" height="24" viewBox="0 0 24 24"  xmlns="http://www.w3.org/2000/svg">
<path fill-rule="evenodd" clip-rule="evenodd" d="M11.2997 4.79907C11.7227 4.51294 12.2773 4.51294 12.7003 4.79907L18.9503 9.02635C19.2941 9.25885 19.5 9.64678 19.5 10.0618V18.25C19.5 18.9403 18.9404 19.5 18.25 19.5H15.8429V17.161V16.8376C15.8429 14.7182 14.1248 13 12.0053 13C9.88588 13 8.16772 14.7182 8.16772 16.8376V19.5H5.75C5.05964 19.5 4.5 18.9403 4.5 18.25V10.0618C4.5 9.64678 4.70595 9.25885 5.04969 9.02635L11.2997 4.79907ZM14.3429 19.5H9.66772V16.8376C9.66772 15.5466 10.7143 14.5 12.0053 14.5C13.2963 14.5 14.3429 15.5466 14.3429 16.8376V17.161V19.5ZM8.16772 21H5.75C4.23122 21 3 19.7688 3 18.25V10.0618C3 9.1488 3.45309 8.29535 4.20931 7.78387L10.4593 3.55658C11.39 2.9271 12.61 2.9271 13.5407 3.55658L19.7907 7.78387C20.5469 8.29535 21 9.1488 21 10.0618V18.25C21 19.7688 19.7688 21 18.25 21H15.8429V21H15.0929H8.91772H8.16772V21Z" />
</svg>
