<svg width="24" height="24" viewBox="0 0 24 24"  xmlns="http://www.w3.org/2000/svg">
<path fill-rule="evenodd" clip-rule="evenodd" d="M11.9986 3.5C7.30493 3.5 3.5 7.30493 3.5 11.9986C3.5 14.0634 4.23641 15.9563 5.46092 17.4289C6.5402 16.1632 8.14753 15.3591 9.9432 15.3591H14.0537C15.8494 15.3591 17.4568 16.1633 18.5361 17.429C19.7607 15.9564 20.4971 14.0635 20.4971 11.9986C20.4971 7.30493 16.6922 3.5 11.9986 3.5ZM17.4743 18.4982C16.6692 17.4977 15.4357 16.8591 14.0537 16.8591H9.9432C8.5612 16.8591 7.32778 17.4976 6.5227 18.4981C8.00169 19.7454 9.91234 20.4971 11.9986 20.4971C14.0847 20.4971 15.9953 19.7455 17.4743 18.4982ZM2 11.9986C2 6.47651 6.47651 2 11.9986 2C17.5206 2 21.9971 6.47651 21.9971 11.9986C21.9971 17.5206 17.5206 21.9971 11.9986 21.9971C6.47651 21.9971 2 17.5206 2 11.9986ZM12 7.5C10.6193 7.5 9.5 8.61929 9.5 10C9.5 11.3807 10.6193 12.5 12 12.5C13.3807 12.5 14.5 11.3807 14.5 10C14.5 8.61929 13.3807 7.5 12 7.5ZM8 10C8 7.79086 9.79086 6 12 6C14.2091 6 16 7.79086 16 10C16 12.2091 14.2091 14 12 14C9.79086 14 8 12.2091 8 10Z" />
</svg>
