<svg width="24" height="24" viewBox="0 0 24 24"  xmlns="http://www.w3.org/2000/svg">
<path fill-rule="evenodd" clip-rule="evenodd" d="M8.25672 5.74824C8.25672 3.67814 9.93486 2 12.005 2C14.075 2 15.7532 3.67814 15.7532 5.74824V6.89039C16.4745 7.51154 17.0399 8.30878 17.3826 9.21537C18.3394 9.03663 19.0004 8.181 19.0004 7C19.0004 6.58579 19.3362 6.25 19.7504 6.25C20.1646 6.25 20.5004 6.58579 20.5004 7C20.5004 8.74978 19.4524 10.3331 17.7244 10.6798C17.7427 10.8664 17.752 11.0556 17.752 11.2471V12.75H19.7504C20.1646 12.75 20.5004 13.0858 20.5004 13.5C20.5004 13.9142 20.1646 14.25 19.7504 14.25H17.752V15.2529C17.752 15.6984 17.7013 16.1321 17.6054 16.5485C19.4042 16.845 20.5004 18.4604 20.5004 20.25C20.5004 20.6642 20.1646 21 19.7504 21C19.3362 21 19.0004 20.6642 19.0004 20.25C19.0004 18.938 18.1847 18.0276 17.0539 18.0006C16.0793 19.7876 14.1837 21 12.005 21C9.8261 21 7.93045 19.7875 6.95593 18.0004C5.81994 18.0223 4.99951 18.9342 4.99951 20.25C4.99951 20.6642 4.66373 21 4.24951 21C3.8353 21 3.49951 20.6642 3.49951 20.25C3.49951 18.4572 4.59964 16.8392 6.40415 16.5469C6.30846 16.131 6.2579 15.6979 6.2579 15.2529V14.25H4.24951C3.8353 14.25 3.49951 13.9142 3.49951 13.5C3.49951 13.0858 3.8353 12.75 4.24951 12.75H6.2579V11.2471C6.2579 11.0563 6.26719 10.8677 6.28535 10.6817C4.55147 10.3391 3.49951 8.75309 3.49951 7C3.49951 6.58579 3.8353 6.25 4.24951 6.25C4.66373 6.25 4.99951 6.58579 4.99951 7C4.99951 8.18485 5.66479 9.0422 6.62668 9.21709C6.96931 8.30979 7.53494 7.51194 8.25672 6.89039V5.74824ZM14.2532 5.74824V5.95639C13.5626 5.66257 12.8028 5.5 12.005 5.5C11.2071 5.5 10.4473 5.66257 9.75672 5.95639V5.74824C9.75672 4.50657 10.7633 3.5 12.005 3.5C13.2466 3.5 14.2532 4.50657 14.2532 5.74824ZM12.005 7C9.65937 7 7.7579 8.90147 7.7579 11.2471V15.2529C7.7579 17.5985 9.65937 19.5 12.005 19.5C14.3505 19.5 16.252 17.5985 16.252 15.2529V11.2471C16.252 8.90147 14.3505 7 12.005 7ZM12.755 12C12.755 11.5858 12.4192 11.25 12.005 11.25C11.5907 11.25 11.255 11.5858 11.255 12V15C11.255 15.4142 11.5907 15.75 12.005 15.75C12.4192 15.75 12.755 15.4142 12.755 15V12Z" />
</svg>
