<svg width="48" height="48" viewBox="0 0 48 48" fill="none" xmlns="http://www.w3.org/2000/svg">
<rect x="4.36365" y="8.45453" width="39.2727" height="24.7273" rx="2" fill="white"/>
<path fill-rule="evenodd" clip-rule="evenodd" d="M5.27271 7C4.16814 7 3.27271 7.89543 3.27271 9V32.6364C3.27271 33.7409 4.16813 34.6364 5.2727 34.6364H42.7272C43.8318 34.6364 44.7272 33.7409 44.7272 32.6364V9C44.7272 7.89543 43.8318 7 42.7273 7H5.27271ZM42.5454 9.90912H5.45454V31.7273H42.5454V9.90912Z" fill="currentColor"/>
<path fill-rule="evenodd" clip-rule="evenodd" d="M19.8627 17.2639L21.587 20.2625C21.7513 19.5452 22.2238 18.935 22.849 18.6057C23.3808 18.3255 23.8724 18.3425 24.6333 18.3425C25.6827 18.3418 27.6197 18.3432 28.8572 18.3425C27.1002 14.8953 22.3983 14.313 19.8627 17.2639Z" fill="currentColor"/>
<path fill-rule="evenodd" clip-rule="evenodd" d="M23.9984 19.0046C22.9981 19.0039 22.1854 19.818 22.1854 20.8182C22.1854 21.8184 22.9988 22.6318 23.9984 22.6318C24.9979 22.6318 25.8113 21.8184 25.8113 20.8182C25.8113 19.818 24.9979 19.0046 23.9984 19.0046Z" fill="currentColor"/>
<path fill-rule="evenodd" clip-rule="evenodd" d="M21.8412 22.0331C21.3434 21.174 20.0275 18.8825 19.4303 17.84C17.3357 21.05 19.1405 25.4238 22.9423 26.1704L24.7014 23.1922C23.6841 23.4943 22.493 23.1595 21.8412 22.0331Z" fill="currentColor"/>
<path fill-rule="evenodd" clip-rule="evenodd" d="M29.1407 19.0032L25.6818 19.0039C26.5293 19.7921 26.7141 21.0685 26.14 22.0578C25.7077 22.8037 24.3271 25.1334 23.6582 26.2612C27.5752 26.5025 30.4307 22.6639 29.1407 19.0032Z" fill="currentColor"/>
<circle cx="24.1818" cy="8.45451" r="0.545455" fill="white"/>
<path d="M44.8223 39.1818H31.8635H15.0699H3.17767C1.78356 39.1818 0.527857 38.0323 0 36.2727H48L47.9154 36.532C47.3462 38.1443 46.1467 39.1818 44.8223 39.1818Z" fill="currentColor"/>
<path d="M0 36.0455C0 35.7693 0.223858 35.5455 0.5 35.5455H47.5C47.7761 35.5455 48 35.7693 48 36.0455V36.2727H0V36.0455Z" fill="currentColor"/>
</svg>
