<svg width="24" height="24" viewBox="0 0 24 24"  xmlns="http://www.w3.org/2000/svg">
<path fill-rule="evenodd" clip-rule="evenodd" d="M12 3.75C9.11023 3.75 6.75 6.12803 6.75 9.08333L6.75 15.25C6.75 15.6642 6.41421 16 6 16C5.58579 16 5.25 15.6642 5.25 15.25L5.25 9.08333C5.25 5.31917 8.26236 2.25 12 2.25C15.7376 2.25 18.75 5.31917 18.75 9.08333V17.1944C18.75 19.8387 16.6331 22 14 22C11.3669 22 9.25 19.8387 9.25 17.1944V9.08333C9.25 7.559 10.4715 6.30556 12 6.30556C13.5285 6.30556 14.75 7.559 14.75 9.08333V17.1944C14.75 17.6087 14.4142 17.9444 14 17.9444C13.5858 17.9444 13.25 17.6087 13.25 17.1944V9.08333C13.25 8.36785 12.6806 7.80556 12 7.80556C11.3194 7.80556 10.75 8.36785 10.75 9.08333V17.1944C10.75 19.0298 12.2148 20.5 14 20.5C15.7852 20.5 17.25 19.0298 17.25 17.1944V9.08333C17.25 6.12803 14.8898 3.75 12 3.75Z" />
</svg>
