<svg width="48" height="48" viewBox="0 0 48 48" fill="none" xmlns="http://www.w3.org/2000/svg">
<rect x="14" y="5" width="19.7189" height="38" rx="5" fill="currentColor"/>
<rect x="15.6433" y="6.64325" width="16.4324" height="34.5081" rx="3" fill="white"/>
<rect x="18.9297" y="5.41083" width="9.85946" height="2.87568" rx="1.43784" fill="currentColor"/>
<rect x="25.9135" y="6.23242" width="0.575135" height="0.575135" fill="white"/>
<path fill-rule="evenodd" clip-rule="evenodd" d="M19.0594 27.2771H18.1617V23.0521H19.0594V27.2771ZM18.1082 21.9329C18.1082 21.7724 18.1521 21.6489 18.2399 21.5623C18.3278 21.4757 18.4532 21.4324 18.6162 21.4324C18.7741 21.4324 18.897 21.4757 18.9849 21.5623C19.0727 21.6489 19.1167 21.7724 19.1167 21.9329C19.1167 22.0857 19.0727 22.206 18.9849 22.2939C18.897 22.3817 18.7741 22.4257 18.6162 22.4257C18.4532 22.4257 18.3278 22.3817 18.2399 22.2939C18.1521 22.206 18.1082 22.0857 18.1082 21.9329ZM25.3969 24.477C25.3969 25.3862 25.1696 26.0929 24.715 26.5972C24.2604 27.1014 23.6167 27.3535 22.784 27.3535C21.941 27.3535 21.2935 27.1033 20.8414 26.6029C20.3894 26.1025 20.1634 25.3913 20.1634 24.4694C20.1634 23.5475 20.3907 22.8395 20.8453 22.3454C21.2999 21.8513 21.9486 21.6043 22.7916 21.6043C23.6218 21.6043 24.2636 21.8552 24.7169 22.3569C25.1702 22.8586 25.3969 23.5653 25.3969 24.477ZM21.1337 24.477C21.1337 25.1646 21.2725 25.6861 21.5501 26.0413C21.8277 26.3966 22.239 26.5742 22.784 26.5742C23.3264 26.5742 23.7358 26.3985 24.0121 26.0471C24.2884 25.6956 24.4266 25.1723 24.4266 24.477C24.4266 23.7919 24.2897 23.2724 24.0159 22.9184C23.7422 22.5644 23.3341 22.3874 22.7916 22.3874C22.2441 22.3874 21.8309 22.5644 21.552 22.9184C21.2731 23.2724 21.1337 23.7919 21.1337 24.477ZM29.8167 25.7606C29.8167 26.2572 29.6372 26.6468 29.2781 26.9295C28.919 27.2122 28.4237 27.3535 27.7921 27.3535C27.1605 27.3535 26.6435 27.2555 26.2411 27.0594V26.1961C26.4958 26.3157 26.7664 26.41 27.0529 26.4787C27.3394 26.5475 27.6062 26.5819 27.8532 26.5819C28.2148 26.5819 28.4816 26.5131 28.6535 26.3756C28.8254 26.2381 28.9114 26.0534 28.9114 25.8217C28.9114 25.6129 28.8324 25.4359 28.6745 25.2907C28.5166 25.1455 28.1906 24.9736 27.6966 24.775C27.1872 24.5687 26.8282 24.3331 26.6193 24.0683C26.4105 23.8034 26.3061 23.4851 26.3061 23.1132C26.3061 22.6472 26.4716 22.2805 26.8027 22.0131C27.1338 21.7457 27.5782 21.612 28.1359 21.612C28.6707 21.612 29.203 21.7291 29.7327 21.9634L29.4424 22.7083C28.9457 22.4995 28.5026 22.3951 28.113 22.3951C27.8175 22.3951 27.5934 22.4594 27.4406 22.588C27.2878 22.7166 27.2114 22.8866 27.2114 23.098C27.2114 23.2431 27.242 23.3673 27.3031 23.4704C27.3642 23.5736 27.4648 23.671 27.6049 23.7627C27.745 23.8543 27.9971 23.9753 28.3613 24.1256C28.7713 24.2962 29.0718 24.4554 29.2628 24.6031C29.4538 24.7508 29.5939 24.9176 29.683 25.1035C29.7722 25.2894 29.8167 25.5084 29.8167 25.7606Z" fill="currentColor"/>
</svg>
