<svg width="24" height="24" viewBox="0 0 24 24" xmlns="http://www.w3.org/2000/svg">
<g clip-path="url(#clip0_28237_28404)">
<path fill-rule="evenodd" clip-rule="evenodd" d="M3.44306 13.0519C1.57944 10.6651 1.7456 7.20802 3.94156 5.01207C6.14761 2.80602 9.62642 2.64847 12.0143 4.5394C14.4021 2.64847 17.8809 2.80602 20.087 5.01207C22.4627 7.38779 22.4627 11.2396 20.087 13.6153C20.0672 13.6351 20.0473 13.6548 20.0272 13.6743L12.0132 21.6883L3.40998 13.085L3.44306 13.0519ZM5.5313 13.085L12.0132 19.567L18.978 12.6022C18.9942 12.5865 19.0103 12.5707 19.0263 12.5547C20.8163 10.7647 20.8163 7.86267 19.0263 6.07273C17.2365 4.28285 14.3345 4.28279 12.5446 6.07255L12.0143 6.60279L11.484 6.07255C9.69402 4.28279 6.79209 4.28285 5.00222 6.07273C3.21246 7.86249 3.21228 10.7642 5.00169 12.5541L5.5313 13.085Z" />
</g>
<defs>
<clipPath id="clip0_28237_28404">
<rect width="24" height="24" fill="white"/>
</clipPath>
</defs>
</svg>
