<svg width="24" height="24" viewBox="0 0 24 24" xmlns="http://www.w3.org/2000/svg">
<path fill-rule="evenodd" clip-rule="evenodd" d="M11.8497 3.53772C11.943 3.48612 12.057 3.48612 12.1503 3.53772C12.9057 3.95558 14.3974 4.74112 15.7557 5.20916C16.7803 5.56225 18.2766 5.6802 19.2127 5.72351C19.3846 5.73147 19.5 5.86964 19.5 6.00394V8.54034C19.5 13.2115 17.0404 17.5375 13.0264 19.9264L12.1279 20.4612C12.0491 20.5081 11.9509 20.5081 11.8721 20.4612L10.9736 19.9264C6.95957 17.5375 4.5 13.2115 4.5 8.54034V6.00394C4.5 5.86964 4.61543 5.73147 4.78734 5.72351C5.72339 5.6802 7.21968 5.56225 8.24435 5.20916C9.60259 4.74112 11.0944 3.95558 11.8497 3.53772ZM12.8764 2.22517C12.3313 1.92364 11.6687 1.92364 11.1236 2.22517C10.3809 2.63606 8.98394 3.36774 7.75565 3.791C6.95951 4.06535 5.66435 4.18132 4.718 4.22511C3.78351 4.26836 3 5.03065 3 6.00394V8.54034C3 13.7403 5.73801 18.556 10.2064 21.2154L11.105 21.7502C11.6565 22.0784 12.3435 22.0784 12.895 21.7502L13.7936 21.2154C18.262 18.556 21 13.7403 21 8.54034V6.00394C21 5.03065 20.2165 4.26836 19.282 4.22511C18.3357 4.18132 17.0405 4.06535 16.2443 3.791C15.0161 3.36774 13.6191 2.63606 12.8764 2.22517ZM15.7953 10.265C16.0797 9.96389 16.0661 9.48921 15.765 9.2048C15.4638 8.92039 14.9891 8.93395 14.7047 9.23509L11.0133 13.1437L9.30747 11.2483C9.03038 10.9405 8.55616 10.9155 8.24828 11.1926C7.94039 11.4697 7.91544 11.9439 8.19253 12.2518L10.4425 14.7518C10.5827 14.9075 10.7815 14.9975 10.991 15C11.2005 15.0025 11.4014 14.9173 11.5453 14.765L15.7953 10.265Z" />
</svg>
