<svg width="24" height="24" viewBox="0 0 24 24" xmlns="http://www.w3.org/2000/svg">
<path fill-rule="evenodd" clip-rule="evenodd" d="M7.46967 18.5303C7.76256 18.8232 8.23744 18.8232 8.53033 18.5303C8.82322 18.2374 8.82322 17.7626 8.53033 17.4697L3.81068 12.75L22 12.75C22.4142 12.75 22.75 12.4142 22.75 12C22.75 11.5858 22.4142 11.25 22 11.25L3.81064 11.25L8.53033 6.53033C8.82323 6.23744 8.82323 5.76256 8.53033 5.46967C8.23744 5.17677 7.76256 5.17677 7.46967 5.46967L1.46967 11.4697C1.39575 11.5436 1.34049 11.6291 1.30388 11.7203C1.27249 11.7986 1.25482 11.881 1.25086 11.964C1.25029 11.976 1.25 11.988 1.25 12C1.25 12 1.25 12 1.25 12C1.25 12.1058 1.27188 12.2064 1.31136 12.2976C1.34253 12.3698 1.38557 12.4381 1.44048 12.4995C1.45096 12.5112 1.4618 12.5226 1.47299 12.5336L7.46967 18.5303Z" />
</svg>
