<svg width="48" height="48" viewBox="0 0 48 48" fill="none" xmlns="http://www.w3.org/2000/svg">
<path fill-rule="evenodd" clip-rule="evenodd" d="M14 7C14 5.89543 14.8954 5 16 5H31.7189C32.8235 5 33.7189 5.89543 33.7189 7V41C33.7189 42.1046 32.8235 43 31.7189 43H16C14.8954 43 14 42.1046 14 41V7ZM20.9838 39.7135C20.9838 39.3732 21.2597 39.0973 21.6 39.0973H26.1189C26.4592 39.0973 26.7351 39.3732 26.7351 39.7135C26.7351 40.0538 26.4592 40.3297 26.1189 40.3297H21.6C21.2597 40.3297 20.9838 40.0538 20.9838 39.7135ZM23.8595 6.84865C24.1998 6.84865 24.4757 6.57276 24.4757 6.23243C24.4757 5.89211 24.1998 5.61622 23.8595 5.61622C23.5191 5.61622 23.2432 5.89211 23.2432 6.23243C23.2432 6.57276 23.5191 6.84865 23.8595 6.84865Z" fill="currentColor"/>
<rect x="15.6432" y="7.46484" width="16.4324" height="30.4" fill="white"/>
<path fill-rule="evenodd" clip-rule="evenodd" d="M20.7784 20.2V25.3352C20.7784 25.5557 21.0714 25.8487 21.2919 25.8487H21.8054V27.9027C21.8054 28.2952 22.183 28.4162 22.5757 28.4162C22.9682 28.4162 23.346 28.0979 23.346 27.7054V25.8487H24.373V27.7054C24.373 28.0979 24.7508 28.4162 25.1433 28.4162C25.536 28.4162 25.9135 28.0979 25.9135 27.7054V25.8487H26.4271C26.6478 25.8487 26.9406 25.5557 26.9406 25.3352V20.2H20.7784ZM27.4465 20.7135V23.7946C27.4465 24.1874 27.8242 24.3081 28.2168 24.3081C28.6093 24.3081 28.987 24.1874 28.987 23.7946V20.7135C28.987 20.321 28.5498 20.2 28.1573 20.2C27.7648 20.2 27.4465 20.321 27.4465 20.7135ZM18.7319 23.7946V20.7136C18.7319 20.321 19.0503 20.2 19.4428 20.2C19.8353 20.2 20.2725 20.321 20.2725 20.7136V23.7946C20.2725 24.1874 19.8947 24.3081 19.5022 24.3081C19.1097 24.3081 18.7319 24.1874 18.7319 23.7946ZM26.0287 16.1858C26.0406 16.1691 26.0234 16.1368 25.9906 16.1133C25.958 16.0904 25.9215 16.0848 25.9097 16.1018L25.3193 16.9348C24.9203 16.7783 24.4355 16.6812 23.845 16.6793C23.251 16.6776 22.7643 16.7718 22.3641 16.9259L21.78 16.1018C21.7682 16.0848 21.732 16.0904 21.6994 16.1133C21.6665 16.1368 21.6494 16.1691 21.6612 16.1858L22.2264 16.9836C20.5789 17.7119 20.7784 19.6865 20.7784 19.6865H26.9406C26.9406 19.6865 27.092 17.7276 25.4565 16.9933L26.0287 16.1858ZM24.8865 18.6595C24.603 18.6595 24.373 18.4297 24.373 18.1463C24.373 17.8625 24.603 17.6324 24.8865 17.6324C25.17 17.6324 25.4 17.8625 25.4 18.1463C25.4 18.4297 25.17 18.6595 24.8865 18.6595ZM22.8362 17.64C22.5548 17.64 22.3265 17.8684 22.3265 18.1501C22.3265 18.4315 22.5548 18.6595 22.8362 18.6595C23.1176 18.6595 23.346 18.4315 23.346 18.1501C23.346 17.8684 23.1176 17.64 22.8362 17.64Z" fill="currentColor"/>
</svg>
