<svg width="24" height="24" viewBox="0 0 24 24"  xmlns="http://www.w3.org/2000/svg">
<path fill-rule="evenodd" clip-rule="evenodd" d="M5.2835 4.22284C4.99061 3.92995 4.51574 3.92995 4.22284 4.22284C3.92995 4.51574 3.92995 4.99061 4.22284 5.2835L10.9422 12.0029L4.22287 18.7223C3.92997 19.0152 3.92997 19.4901 4.22287 19.783C4.51576 20.0758 4.99063 20.0758 5.28353 19.783L12.0029 13.0636L18.7223 19.783C19.0152 20.0758 19.4901 20.0758 19.783 19.783C20.0758 19.4901 20.0758 19.0152 19.783 18.7223L13.0636 12.0029L19.783 5.2835C20.0759 4.99061 20.0759 4.51574 19.783 4.22284C19.4901 3.92995 19.0152 3.92995 18.7223 4.22284L12.0029 10.9422L5.2835 4.22284Z" />
</svg>
