<svg width="24" height="24" viewBox="0 0 24 24"  xmlns="http://www.w3.org/2000/svg">
<path fill-rule="evenodd" clip-rule="evenodd" d="M6.87554 5.62348C9.70684 2.79217 14.3055 2.79217 17.1368 5.62348C19.9686 8.45528 19.9718 13.0499 17.141 15.8806L12.8901 20.1315C12.4019 20.6197 11.6105 20.6197 11.1223 20.1315L6.87142 15.8806C4.04062 13.0499 4.04373 8.45528 6.87554 5.62348ZM18.1975 4.56282C14.7804 1.14573 9.23197 1.14573 5.81488 4.56282C2.39829 7.9794 2.39317 13.5237 5.81076 16.9413L10.0616 21.1922C11.1356 22.2661 12.8768 22.2661 13.9507 21.1922L18.2016 16.9413C21.6192 13.5237 21.6141 7.9794 18.1975 4.56282ZM10.6977 9.72484C10.6977 9.00216 11.2835 8.41631 12.0062 8.41631C12.7289 8.41631 13.3147 9.00216 13.3147 9.72484C13.3147 10.4475 12.7289 11.0334 12.0062 11.0334C11.2835 11.0334 10.6977 10.4475 10.6977 9.72484ZM12.0062 6.91631C10.4551 6.91631 9.19767 8.17373 9.19767 9.72484C9.19767 11.276 10.4551 12.5334 12.0062 12.5334C13.5573 12.5334 14.8147 11.276 14.8147 9.72484C14.8147 8.17373 13.5573 6.91631 12.0062 6.91631Z" />
</svg>
