<svg class="fill-current" width="16" height="16" viewBox="0 0 16 16" xmlns="http://www.w3.org/2000/svg">
  <path d="M8.49983 1.5C8.49983 1.22386 8.27598 1 7.99983 1C7.72369 1 7.49983 1.22386 7.49983 1.5L7.49983 7.5H1.5C1.22386 7.5 1 7.72386 1 8C1 8.27614 1.22386 8.5 1.5 8.5H7.49983L7.49983 14.4996C7.49983 14.7757 7.72369 14.9996 7.99983 14.9996C8.27597 14.9996 8.49983 14.7757 8.49983 14.4996L8.49983 8.5H14.4996C14.7757 8.5 14.9996 8.27614 14.9996 8C14.9996 7.72386 14.7757 7.5 14.4996 7.5H8.49983L8.49983 1.5Z"/>
</svg>
