<svg width="48" height="48" viewBox="0 0 48 48" fill="none" xmlns="http://www.w3.org/2000/svg">
<path fill-rule="evenodd" clip-rule="evenodd" d="M0 8C0 6.89543 0.895431 6 2 6H46C47.1046 6 48 6.89543 48 8V35.2C48 36.3046 47.1046 37.2 46 37.2H28.6914L29.2839 42H35.8303L36.2667 43H12.2667L12.703 42H18.716L19.3086 37.2H2C0.895431 37.2 0 36.3046 0 35.2V8Z" fill="currentColor"/>
<circle cx="24.2" cy="34.6" r="0.6" fill="white"/>
<rect x="1.59998" y="7.59998" width="44.8" height="24.8" fill="white"/>
<rect x="23.6" y="6.52002" width="0.56" height="0.56" fill="white"/>
<path fill-rule="evenodd" clip-rule="evenodd" d="M14.0376 23.014L12.4917 18.5625H12.4626C12.5039 19.2236 12.5245 19.8434 12.5245 20.4219V23.014H11.7334V17.6838H12.962L14.4423 21.9239H14.4641L15.9881 17.6838H17.2204V23.014H16.3818V20.3781C16.3818 20.1132 16.3885 19.768 16.4019 19.3427C16.4153 18.9173 16.4268 18.6597 16.4365 18.5698H16.4074L14.8068 23.014H14.0376ZM21.0558 23.014L20.8844 22.4526H20.8553C20.6608 22.6981 20.4652 22.8652 20.2683 22.9539C20.0714 23.0426 19.8186 23.087 19.51 23.087C19.1138 23.087 18.8045 22.98 18.5821 22.7661C18.3597 22.5522 18.2485 22.2496 18.2485 21.8583C18.2485 21.4427 18.4028 21.1292 18.7115 20.9177C19.0202 20.7062 19.4905 20.5908 20.1225 20.5713L20.8188 20.5495V20.3344C20.8188 20.0767 20.7587 19.8841 20.6383 19.7565C20.518 19.6289 20.3315 19.5651 20.0787 19.5651C19.8721 19.5651 19.674 19.5955 19.4844 19.6562C19.2949 19.717 19.1126 19.7887 18.9376 19.8713L18.6605 19.2588C18.8792 19.1446 19.1186 19.0577 19.3787 18.9982C19.6388 18.9386 19.8843 18.9088 20.1152 18.9088C20.628 18.9088 21.0151 19.0206 21.2764 19.2443C21.5376 19.4679 21.6683 19.8191 21.6683 20.2979V23.014H21.0558ZM19.7798 22.4307C20.0909 22.4307 20.3406 22.3438 20.529 22.17C20.7173 21.9962 20.8115 21.7526 20.8115 21.439V21.089L20.2938 21.1109C19.8903 21.1255 19.5969 21.1929 19.4133 21.3133C19.2298 21.4336 19.1381 21.6177 19.1381 21.8656C19.1381 22.0455 19.1916 22.1846 19.2985 22.283C19.4054 22.3815 19.5659 22.4307 19.7798 22.4307ZM24.4902 23.087C23.8801 23.087 23.4165 22.9089 23.0993 22.5528C22.7821 22.1968 22.6235 21.6858 22.6235 21.0198C22.6235 20.3416 22.7894 19.8203 23.1212 19.4557C23.4529 19.0911 23.9324 18.9088 24.5594 18.9088C24.9848 18.9088 25.3676 18.9878 25.7079 19.1458L25.449 19.8349C25.0869 19.6939 24.7879 19.6234 24.5521 19.6234C23.8546 19.6234 23.5058 20.0864 23.5058 21.0125C23.5058 21.4646 23.5927 21.8042 23.7665 22.0315C23.9403 22.2588 24.1949 22.3724 24.5303 22.3724C24.9119 22.3724 25.2728 22.2776 25.6131 22.088V22.8354C25.46 22.9253 25.2965 22.9897 25.1227 23.0286C24.9489 23.0675 24.7381 23.087 24.4902 23.087ZM33.324 20.3416C33.324 21.2094 33.1071 21.8838 32.6732 22.3651C32.2394 22.8463 31.6251 23.087 30.8303 23.087C30.0258 23.087 29.4078 22.8482 28.9764 22.3705C28.5449 21.8929 28.3292 21.2142 28.3292 20.3344C28.3292 19.4545 28.5462 18.7788 28.98 18.3073C29.4139 17.8357 30.0331 17.6 30.8376 17.6C31.6299 17.6 32.2424 17.8394 32.6751 18.3182C33.1077 18.797 33.324 19.4715 33.324 20.3416ZM29.2553 20.3417C29.2553 20.9979 29.3877 21.4956 29.6527 21.8346C29.9176 22.1737 30.3101 22.3432 30.8303 22.3432C31.348 22.3432 31.7387 22.1755 32.0024 21.8401C32.2661 21.5047 32.398 21.0052 32.398 20.3417C32.398 19.6878 32.2673 19.192 32.006 18.8542C31.7448 18.5163 31.3553 18.3474 30.8376 18.3474C30.315 18.3474 29.9206 18.5163 29.6545 18.8542C29.3883 19.192 29.2553 19.6878 29.2553 20.3417ZM37.5422 21.5667C37.5422 22.0406 37.3709 22.4125 37.0282 22.6823C36.6855 22.9521 36.2127 23.087 35.6099 23.087C35.0072 23.087 34.5138 22.9934 34.1297 22.8062V21.9823C34.3728 22.0965 34.631 22.1864 34.9045 22.2521C35.1779 22.3177 35.4325 22.3505 35.6683 22.3505C36.0134 22.3505 36.268 22.2849 36.4321 22.1536C36.5961 22.0224 36.6782 21.8462 36.6782 21.625C36.6782 21.4257 36.6028 21.2568 36.4521 21.1182C36.3014 20.9797 35.9903 20.8156 35.5188 20.626C35.0327 20.4291 34.69 20.2043 34.4907 19.9515C34.2914 19.6988 34.1917 19.395 34.1917 19.0401C34.1917 18.5953 34.3497 18.2453 34.6657 17.9901C34.9816 17.7349 35.4058 17.6073 35.9381 17.6073C36.4485 17.6073 36.9565 17.7191 37.462 17.9427L37.1849 18.6536C36.711 18.4543 36.2881 18.3547 35.9162 18.3547C35.6342 18.3547 35.4204 18.416 35.2745 18.5388C35.1287 18.6615 35.0558 18.8238 35.0558 19.0255C35.0558 19.164 35.0849 19.2825 35.1433 19.381C35.2016 19.4794 35.2976 19.5724 35.4313 19.6599C35.565 19.7474 35.8056 19.8628 36.1532 20.0062C36.5445 20.1691 36.8313 20.321 37.0136 20.462C37.1959 20.6029 37.3296 20.7621 37.4146 20.9396C37.4997 21.117 37.5422 21.326 37.5422 21.5667Z" fill="currentColor"/>
</svg>
